<?xml version="1.0" encoding="UTF-8"?>
<svg id="Layer_1" xmlns="http://www.w3.org/2000/svg" version="1.1" viewBox="0 0 561 150">
  <!-- Generator: Adobe Illustrator 29.6.1, SVG Export Plug-In . SVG Version: 2.1.1 Build 9)  -->
  <defs>
    <style>
      .st0 {
        fill: #231f20;
      }

      .st1 {
        fill: #ec7a39;
      }

      .st2 {
        fill: #d03733;
      }

      .st3 {
        fill: #f0ad1e;
      }

      .st4 {
        fill: #ee4137;
      }
    </style>
  </defs>
  <g>
    <path class="st3" d="M148.2,41.5h11.7v39.9h-11.7v-39.9Z"/>
    <path class="st3" d="M163.1,61.6c0-11.9,8.2-20.8,20.2-20.8s8.3,1.1,11.2,3.1c4.1,2.8,6.5,7.3,7,12.4h-11.7c-.3-3.1-2.9-5.9-6.7-5.9-5.5,0-8.2,4.7-8.2,11.2s3.1,11.2,8.3,11.2,6.5-2.7,6.9-6.2h11.8c-.3,4.4-2.3,8.3-5.2,11-3.4,3.3-7.6,4.7-13.4,4.7-12.2,0-20.2-8.8-20.2-20.7Z"/>
    <path class="st3" d="M203.2,61.6c0-11.9,7.8-20.8,20.2-20.8s20.3,8.9,20.3,20.8-7.9,20.7-20.3,20.7-20.2-8.8-20.2-20.7ZM231.9,61.6c0-6.5-2.8-11.5-8.4-11.5s-8.4,5-8.4,11.5,2.8,11.4,8.4,11.4,8.4-4.9,8.4-11.4Z"/>
    <path class="st3" d="M246.9,41.5h11.7l13,22.4h.1v-22.4h11.3v39.9h-12l-12.7-22.6h-.1v22.6h-11.3v-39.9Z"/>
    <path class="st0" d="M296.1,41.5h15.2l6.1,22.3h.1l6.1-22.3h15.3v39.9h-10.5v-25h-.1l-6.6,25h-8.5l-6.6-25h-.1v25h-10.3v-39.9Z"/>
    <path class="st0" d="M343.7,41.5h31.1v9.5h-19.4v5.4h16.2v8.8h-16.2v6.2h20v10h-31.6v-39.9Z"/>
    <path class="st0" d="M377.7,41.5h34.3v9.9h-11.4v29.9h-11.7v-29.9h-11.3v-9.9Z"/>
    <path class="st0" d="M415.2,41.5h11.7v14.6h12.3v-14.6h11.7v39.9h-11.7v-15.6h-12.3v15.6h-11.7v-39.9Z"/>
    <path class="st0" d="M454,61.6c0-11.9,7.8-20.8,20.2-20.8s20.3,8.9,20.3,20.8-7.9,20.7-20.3,20.7-20.2-8.8-20.2-20.7ZM482.7,61.6c0-6.5-2.8-11.5-8.4-11.5s-8.4,5-8.4,11.5,2.8,11.4,8.4,11.4,8.4-4.9,8.4-11.4Z"/>
    <path class="st0" d="M497.8,41.5h18.4c11.5,0,19.5,7.4,19.5,20s-7.6,19.8-20,19.8h-17.9v-39.9ZM514.7,71.7c5.4,0,9.1-3.5,9.1-10.2s-3.5-10.4-9.1-10.4h-5.3v20.6h5.3Z"/>
    <path class="st0" d="M535.1,42h6.6v1.3h-2.5v6.7h-1.6v-6.7h-2.5v-1.3ZM543.1,42h2.2l1.7,6.1h0l1.8-6.1h2.3v8h-1.5v-6.1h0s-.3,1.3-.6,2.3l-1.1,3.9h-1.5l-1.1-3.9c-.3-.9-.6-2.3-.6-2.3h0v6.1h-1.4v-8Z"/>
  </g>
  <g>
    <path class="st0" d="M154.8,93.4h2.6l6.7,18.1h-2.5l-1.9-5.5h-7.2l-1.9,5.5h-2.3l6.6-18.1ZM153,104.1h5.9l-2.1-6.1c-.4-1-.8-2.6-.8-2.6h0s-.5,1.5-.8,2.6l-2.1,6.1Z"/>
    <path class="st0" d="M172.7,109.8h0v1.6h-3.3v-18.1h3.4v6.7h0c.7-1.1,1.8-1.9,3.6-1.9,3.3,0,5.6,2.8,5.6,6.9s-2.2,6.9-5.5,6.9-3.1-.8-3.9-2ZM178.6,105c0-2.4-1-4.1-2.9-4.1s-3,1.7-3,4.1,1.2,3.9,3.1,3.9,2.8-1.5,2.8-4Z"/>
    <path class="st0" d="M187,100.6h0c.8-1.5,1.7-2.2,3.2-2.2s.6,0,.8.1v3h0c-2.2-.2-3.9,1-3.9,3.7v6.3h-3.4v-13h3.3v2.1Z"/>
    <path class="st0" d="M199.9,110h0c-.7,1-1.6,1.7-3.8,1.7s-4.5-1.4-4.5-4,2.3-3.8,5.2-4.2c2.1-.3,3.1-.5,3.1-1.5s-.7-1.5-2.2-1.5-2.4.6-2.5,1.8h-3.1c.1-2.3,1.8-4.3,5.6-4.3s5.5,1.7,5.5,4.8v6.6c0,1,.2,1.6.5,1.8h0c0,.1-3.3.1-3.3.1-.2-.3-.3-.9-.4-1.4ZM200,106.9v-1.9c-.6.4-1.5.6-2.4.8-1.8.4-2.7.8-2.7,2s.8,1.6,2,1.6c2,0,3.1-1.2,3.1-2.5Z"/>
    <path class="st0" d="M208.7,100.3h0c.9-1.4,2.1-2.1,3.8-2.1,2.7,0,4.5,2,4.5,4.9v8.5h-3.4v-8c0-1.4-.8-2.4-2.2-2.4s-2.6,1.2-2.6,3v7.4h-3.4v-13h3.4v1.8Z"/>
    <path class="st0" d="M218.6,105c0-4,2.3-6.9,5.5-6.9s3,.8,3.7,1.9h0v-6.7h3.4v18.1h-3.3v-1.7h0c-.8,1.2-2,2.1-3.9,2.1-3.3,0-5.5-2.7-5.5-6.9ZM228,105.1c0-2.5-.8-4.1-3-4.1s-2.9,1.7-2.9,4.1,1,4,2.8,4,3.1-1.5,3.1-3.9Z"/>
    <path class="st0" d="M237.1,98.5h1.8v-4h3.4v4h2.2v2.3h-2.2v6.9c0,1,.5,1.3,1.3,1.3s1,0,1,0v2.5s-.8,0-2.1,0-3.5-.7-3.5-3.1v-7.6h-1.8v-2.3Z"/>
    <path class="st0" d="M249.5,100.6h0c.8-1.5,1.7-2.2,3.2-2.2s.6,0,.8.1v3h0c-2.2-.2-3.9,1-3.9,3.7v6.3h-3.4v-13h3.3v2.1Z"/>
    <path class="st0" d="M262.5,110h0c-.7,1-1.6,1.7-3.8,1.7s-4.5-1.4-4.5-4,2.3-3.8,5.2-4.2c2.1-.3,3.1-.5,3.1-1.5s-.7-1.5-2.2-1.5-2.4.6-2.5,1.8h-3.1c.1-2.3,1.8-4.3,5.6-4.3s5.5,1.7,5.5,4.8v6.6c0,1,.2,1.6.5,1.8h0c0,.1-3.3.1-3.3.1-.2-.3-.3-.9-.4-1.4ZM262.5,106.9v-1.9c-.6.4-1.5.6-2.4.8-1.8.4-2.7.8-2.7,2s.8,1.6,2,1.6c2,0,3.1-1.2,3.1-2.5Z"/>
    <path class="st0" d="M271.3,100.3h0c.9-1.4,2.1-2.1,3.8-2.1,2.7,0,4.5,2,4.5,4.9v8.5h-3.4v-8c0-1.4-.8-2.4-2.2-2.4s-2.6,1.2-2.6,3v7.4h-3.4v-13h3.4v1.8Z"/>
    <path class="st0" d="M281,107.3h3.2c.2,1.5,1.3,2.1,2.8,2.1s2.4-.6,2.4-1.5-1.6-1.4-3.4-1.7c-2.3-.5-4.6-1.1-4.6-3.9s2.3-4.1,5.3-4.1,5.3,1.7,5.6,4.3h-3.1c-.2-1.4-1-1.9-2.5-1.9s-2.2.5-2.2,1.4,1.7,1.2,3.6,1.6c2.2.5,4.6,1.1,4.6,4.1s-2.2,4.2-5.5,4.2-5.9-1.8-6.1-4.6Z"/>
    <path class="st0" d="M293,98.5h1.8v-1.2c0-3.2,2.5-4.3,5.8-3.9v2.7c-1.6,0-2.3.1-2.3,1.5v1h2.3v2.4h-2.3v10.6h-3.4v-10.6h-1.8v-2.4Z"/>
    <path class="st0" d="M301.1,105c0-3.9,2.8-6.9,6.8-6.9s6.8,3,6.8,6.9-2.8,6.9-6.8,6.9-6.8-3-6.8-6.9ZM311.2,105c0-2.5-1.2-4.2-3.3-4.2s-3.3,1.7-3.3,4.2,1.2,4.2,3.3,4.2,3.3-1.7,3.3-4.2Z"/>
    <path class="st0" d="M319.6,100.6h0c.8-1.5,1.7-2.2,3.2-2.2s.6,0,.8.1v3h0c-2.3-.2-3.9,1-3.9,3.7v6.3h-3.4v-13h3.3v2.1Z"/>
    <path class="st0" d="M325.1,98.5h3.3v1.7h0c.7-1.2,2-2.1,3.8-2.1s3,.9,3.6,2.3h0c.9-1.4,2.3-2.3,3.9-2.3,2.7,0,4.3,1.8,4.3,4.6v8.7h-3.4v-8.1c0-1.5-.7-2.2-2-2.2s-2.3,1.1-2.3,2.8v7.5h-3.4v-8.1c0-1.5-.7-2.2-2-2.2s-2.3,1.1-2.3,2.8v7.5h-3.4v-13Z"/>
    <path class="st0" d="M354,110h0c-.7,1-1.6,1.7-3.8,1.7s-4.5-1.4-4.5-4,2.3-3.8,5.2-4.2c2.1-.3,3.1-.5,3.1-1.5s-.7-1.5-2.2-1.5-2.4.6-2.5,1.8h-3.1c.1-2.3,1.8-4.3,5.6-4.3s5.5,1.7,5.5,4.8v6.6c0,1,.2,1.6.5,1.8h0c0,.1-3.3.1-3.3.1-.2-.3-.3-.9-.4-1.4ZM354,106.9v-1.9c-.6.4-1.5.6-2.4.8-1.8.4-2.7.8-2.7,2s.8,1.6,2,1.6c2,0,3.1-1.2,3.1-2.5Z"/>
    <path class="st0" d="M358.4,98.5h1.8v-4h3.4v4h2.2v2.3h-2.2v6.9c0,1,.5,1.3,1.3,1.3s1,0,1,0v2.5s-.8,0-2.1,0-3.5-.7-3.5-3.1v-7.6h-1.8v-2.3Z"/>
    <path class="st0" d="M367.6,93.4h3.4v3.1h-3.4v-3.1ZM367.6,98.5h3.4v13h-3.4v-13Z"/>
    <path class="st0" d="M372.6,105c0-3.9,2.8-6.9,6.8-6.9s6.8,3,6.8,6.9-2.8,6.9-6.8,6.9-6.8-3-6.8-6.9ZM382.6,105c0-2.5-1.2-4.2-3.3-4.2s-3.3,1.7-3.3,4.2,1.2,4.2,3.3,4.2,3.3-1.7,3.3-4.2Z"/>
    <path class="st0" d="M391.1,100.3h0c.9-1.4,2.1-2.1,3.8-2.1,2.7,0,4.5,2,4.5,4.9v8.5h-3.4v-8c0-1.4-.8-2.4-2.2-2.4s-2.6,1.2-2.6,3v7.4h-3.4v-13h3.4v1.8Z"/>
    <path class="st0" d="M405.1,98.4h1.8v-2.1c0-2.3,1.3-3.1,3.5-3.1s.8,0,1,0v1.7c-.4,0-.5,0-.7,0-1.3,0-1.8.3-1.8,1.4v2h2.4v1.7h-2.4v11.4h-2v-11.4h-1.8v-1.7Z"/>
    <path class="st0" d="M415.4,100.6h0c.8-1.3,2.1-2.3,3.9-2.3s.6,0,.8.2v2h0c-.3-.1-.5-.1-.9-.1-2,0-3.8,1.5-3.8,4v7.3h-2v-13.1h2v2.2Z"/>
    <path class="st0" d="M429.5,109.6h0c-.8,1-2.1,2.1-4.3,2.1s-4.4-1.2-4.4-3.6,2.4-3.7,5.7-4.2c1.8-.3,3.1-.5,3.1-1.9s-1.1-2.3-2.9-2.3-3.2.9-3.3,2.9h-2c0-2.5,1.7-4.4,5.2-4.4s4.8,1,4.8,4.1v6.2c0,1.1.3,1.6,1.4,1.4h0v1.5c-.3.1-.6.2-1.1.2-1.3,0-2-.6-2.3-1.9ZM429.6,106.6v-2.2c-.7.4-1.9.8-3,1-2,.4-3.7.7-3.7,2.7s1.4,2.1,2.7,2.1c2.7,0,4-2,4-3.5Z"/>
    <path class="st0" d="M434.4,98.4h2v1.9h0c.8-1.3,2.2-2.2,3.8-2.2s2.9.8,3.4,2.3h0c.8-1.5,2.4-2.3,4-2.3,2.3,0,4,1.5,4,4.2v9.2h-2v-9.1c0-1.6-1.1-2.6-2.4-2.6s-3.2,1.5-3.2,3.5v8.1h-2v-9.1c0-1.6-.9-2.6-2.2-2.6s-3.4,1.5-3.4,3.5v8.1h-2v-13.1Z"/>
    <path class="st0" d="M453.7,104.9c0-3.8,2.5-6.9,6.2-6.9s6,3,6,7.4h-10.1c.2,2.7,1.6,4.7,4.2,4.7s3.2-.9,3.6-2.7h2c-.6,2.8-2.7,4.4-5.6,4.4s-6.3-3.1-6.3-6.9ZM455.9,103.9h7.9c-.1-2.6-1.5-4.2-3.8-4.2s-3.7,1.8-4,4.2Z"/>
    <path class="st0" d="M466.4,98.4h2.2l2.3,8.1c.3,1.1.7,2.8.7,2.8h0s.4-1.7.7-2.8l2.2-8.1h2.1l2.1,8.1c.3,1.1.6,2.8.6,2.8h0s.4-1.7.7-2.8l2.4-8.1h2.1l-4.3,13.1h-2.1l-2.2-7.9c-.3-1.1-.6-2.7-.6-2.7h0s-.4,1.6-.7,2.7l-2.2,7.9h-2.1l-4.1-13.1Z"/>
    <path class="st0" d="M485.3,104.9c0-3.8,2.4-6.9,6.3-6.9s6.3,3.1,6.3,6.9-2.4,6.9-6.3,6.9-6.3-3.1-6.3-6.9ZM495.8,104.9c0-2.9-1.4-5.2-4.2-5.2s-4.2,2.3-4.2,5.2,1.4,5.2,4.2,5.2,4.2-2.3,4.2-5.2Z"/>
    <path class="st0" d="M502,100.6h0c.8-1.3,2.1-2.3,3.9-2.3s.6,0,.8.2v2h0c-.3-.1-.5-.1-.9-.1-2,0-3.8,1.5-3.8,4v7.3h-2v-13.1h2v2.2Z"/>
    <path class="st0" d="M512.6,104.4l-1.9,1.8v5.2h-2v-18.1h2v10.6l5.7-5.6h2.6l-5,4.7,5.6,8.4h-2.4l-4.6-7.1Z"/>
  </g>
  <g>
    <polygon class="st3" points="61.7 101.7 38.4 142.6 75.6 142.6 61.7 101.7"/>
    <polygon class="st1" points="61.7 101.7 75.6 142.6 125.9 77.3 75.6 77.3 61.7 101.7"/>
    <polygon class="st2" points="75.6 12 7.2 12 58.9 61.3 75.6 12"/>
    <polygon class="st4" points="75.6 77.3 125.9 77.3 75.6 12 58.9 61.3 75.6 77.3"/>
  </g>
</svg>