<?xml version="1.0" encoding="UTF-8"?>
<svg id="Layer_1" xmlns="http://www.w3.org/2000/svg" version="1.1" viewBox="0 0 560 150">
  <!-- Generator: Adobe Illustrator 29.6.1, SVG Export Plug-In . SVG Version: 2.1.1 Build 9)  -->
  <defs>
    <style>
      .st0 {
        fill: #fff;
      }

      .st1 {
        fill-rule: evenodd;
      }

      .st1, .st2 {
        fill: #ee4137;
      }
    </style>
  </defs>
  <g>
    <path class="st2" d="M123.1,38h12.4v42.5h-12.4v-42.5Z"/>
    <path class="st2" d="M139.1,59.3c0-12.7,8.8-22.1,21.5-22.1s8.8,1.2,11.9,3.3c4.4,3,7,7.8,7.5,13.2h-12.4c-.3-3.3-3.1-6.3-7.2-6.3-5.9,0-8.8,5-8.8,11.9s3.3,12,8.9,12,7-2.9,7.4-6.6h12.5c-.3,4.7-2.5,8.9-5.6,11.8-3.6,3.5-8.1,5-14.3,5-12.9,0-21.5-9.4-21.5-22h.1v-.2Z"/>
    <path class="st2" d="M181.6,59.3c0-12.7,8.3-22.1,21.5-22.1s21.6,9.4,21.6,22.1-8.4,22-21.6,22-21.5-9.4-21.5-22ZM212.2,59.3c0-7-3-12.2-9-12.2s-9,5.2-9,12.2,3,12.2,9,12.2,9-5.2,9-12.2Z"/>
    <path class="st2" d="M228.2,38h12.4l13.9,23.9h.1v-23.9h12v42.5h-12.8l-13.5-24.1h-.1v24.1h-12v-42.5h0Z"/>
    <path class="st0" d="M280.6,38h16.1l6.5,23.7h.1l6.5-23.7h16.3v42.5h-11.2v-26.6h-.1l-7.1,26.6h-9.1l-7.1-26.6h-.1v26.6h-10.9v-42.5h.1Z"/>
    <path class="st0" d="M331.2,38h33v10.1h-20.6v5.8h17.2v9.3h-17.2v6.6h21.3v10.6h-33.7v-42.5h0Z"/>
    <path class="st0" d="M367.3,38h36.6v10.6h-12.2v31.9h-12.4v-31.9h-12v-10.6Z"/>
    <path class="st0" d="M407.3,38h12.4v15.5h13v-15.5h12.4v42.5h-12.4v-16.6h-13v16.6h-12.4v-42.5Z"/>
    <path class="st0" d="M448.6,59.3c0-12.7,8.3-22.1,21.5-22.1s21.6,9.4,21.6,22.1-8.4,22-21.6,22-21.5-9.4-21.5-22ZM479.2,59.3c0-7-3-12.2-9-12.2s-9,5.2-9,12.2,3,12.2,9,12.2,9-5.2,9-12.2Z"/>
    <path class="st0" d="M495.1,38h19.6c12.2,0,20.7,7.8,20.7,21.3s-8,21.1-21.3,21.1h-19v-42.5h0ZM513.2,70.1c5.7,0,9.6-3.6,9.6-10.9s-3.7-11-9.6-11h-5.7v21.9h5.7Z"/>
    <path class="st0" d="M534.9,38.6h7.1v1.4h-2.7v7.2h-1.7v-7.2h-2.7v-1.4h0ZM543.4,38.6h2.4l1.8,6.5h0l1.9-6.5h2.5v8.6h-1.5v-6.5h0s-.3,1.4-.6,2.5l-1.2,4.1h-1.6l-1.2-4.1c-.3-1-.6-2.5-.6-2.5h0v6.5h-1.5v-8.6h-.4Z"/>
  </g>
  <g>
    <path class="st0" d="M130.2,100.8h2.7l7.1,19.3h-2.7l-2-5.9h-7.7l-2,5.9h-2.5l7.1-19.3h.1-.1ZM128.3,112.3h6.3l-2.2-6.4c-.4-1.1-.9-2.7-.9-2.7h0s-.5,1.6-.9,2.7l-2.2,6.4h-.1Z"/>
    <path class="st0" d="M143.9,108h0c1-1.3,2.4-2.1,4.4-2.1,2.9,0,4.7,1.6,4.7,4.5v9.7h-2.1v-9.6c0-1.8-1.2-2.8-3.1-2.8s-3.9,1.6-3.9,3.9v8.6h-2.1v-13.9h2.1v1.8h0Z"/>
    <path class="st0" d="M165.5,100.8h4.1l6.7,19.3h-4.1l-1.3-4.1h-7l-1.3,4.1h-4l6.7-19.3h.2ZM165,113h5.1l-1.7-5.6c-.3-1.1-.7-3-.7-3h0s-.5,1.9-.9,3l-1.7,5.6h-.1Z"/>
    <path class="st0" d="M181.2,118.4h0v1.7h-3.5v-19.3h3.6v7.1h0c.7-1.2,1.9-2,3.9-2,3.4,0,6,3,6,7.3s-2.4,7.3-5.9,7.3-3.3-.9-4.1-2.1h0ZM187.4,113.2c0-2.6-1.1-4.3-3.1-4.3s-3.2,1.8-3.2,4.4,1.3,4.2,3.3,4.2,2.9-1.6,2.9-4.2h.1Z"/>
    <path class="st0" d="M192,115.7h3.4c.2,1.6,1.4,2.2,3,2.2s2.6-.6,2.6-1.6-1.7-1.5-3.6-1.8c-2.5-.5-4.9-1.2-4.9-4.2s2.5-4.4,5.7-4.4,5.7,1.8,5.9,4.6h-3.3c-.2-1.5-1.1-2-2.7-2s-2.4.5-2.4,1.5,1.8,1.3,3.7,1.7c2.4.5,4.9,1.2,4.9,4.4s-2.4,4.5-5.8,4.5-6.2-1.9-6.4-4.9h-.1,0Z"/>
    <path class="st0" d="M204.9,106.3h1.9v-4.3h3.5v4.3h2.4v2.5h-2.4v7.3c0,1.1.5,1.4,1.4,1.4h1.1v2.7h-2.2c-1.4,0-3.7-.7-3.7-3.3v-8.1h-1.9v-2.5h-.1Z"/>
    <path class="st0" d="M218.1,108.5h0c.9-1.6,1.8-2.4,3.4-2.4s.6,0,.9,0v3.2h0c-2.4-.2-4.1,1.1-4.1,4v6.7h-3.6v-13.8h3.5v2.2h-.1,0Z"/>
    <path class="st0" d="M231.9,118.6h0c-.7,1.1-1.7,1.8-4.1,1.8s-4.8-1.5-4.8-4.2,2.5-4,5.6-4.5c2.2-.3,3.3-.5,3.3-1.6s-.7-1.6-2.4-1.6-2.6.6-2.7,1.9h-3.2c.1-2.5,1.9-4.5,6-4.5s5.8,1.8,5.8,5.1v7.1c0,1.1.2,1.7.5,1.9h0c0,0-3.5,0-3.5,0-.2-.3-.3-1-.4-1.5h-.1ZM231.9,115.3v-2c-.6.4-1.6.6-2.6.9-1.9.4-2.9.9-2.9,2.1s.9,1.7,2.1,1.7c2.1,0,3.2-1.3,3.2-2.7h.2Z"/>
    <path class="st0" d="M236.9,113.2c0-4.1,2.7-7.3,6.8-7.3s5.8,2,6.3,5h-3.5c-.2-1.2-1.2-2.1-2.6-2.1-2.2,0-3.3,1.7-3.3,4.4s1.1,4.4,3.3,4.4,2.6-.7,2.8-2.4h3.5c-.2,2.9-2.6,5.2-6.2,5.2s-7.1-3.2-7.1-7.3h-.1.1Z"/>
    <path class="st0" d="M251.1,106.3h1.9v-4.3h3.5v4.3h2.4v2.5h-2.4v7.3c0,1.1.5,1.4,1.4,1.4h1.1v2.7h-2.2c-1.4,0-3.7-.7-3.7-3.3v-8.1h-1.9v-2.5h0Z"/>
    <path class="st0" d="M264.8,110.6c0-5.7,3.5-10.1,9.2-10.1s7.5,2.8,7.9,6.5h-3.9c-.3-1.9-1.8-3.2-4.1-3.2-3.5,0-5.2,3-5.2,6.7s2,6.7,5.2,6.7,3.9-1.4,4.2-3.4h3.9c-.1,1.7-.9,3.3-2.1,4.6-1.3,1.3-3.2,2-5.9,2-5.5,0-9.3-4.2-9.3-9.9h.1,0Z"/>
    <path class="st0" d="M287.2,108.5h0c.9-1.6,1.8-2.4,3.4-2.4s.6,0,.9,0v3.2h0c-2.4-.2-4.1,1.1-4.1,4v6.7h-3.6v-13.8h3.5v2.2h-.1,0Z"/>
    <path class="st0" d="M292.1,113.2c0-4.1,2.8-7.3,6.8-7.3s6.8,3.4,6.8,8.3h-10.1c.3,2.1,1.5,3.4,3.5,3.4s2.2-.6,2.7-1.7h3.6c-.5,2.5-2.7,4.5-6.2,4.5s-7.2-3.2-7.2-7.3h-.1.2ZM295.8,111.8h6.1c-.1-1.7-1.3-3-2.9-3s-2.9,1.2-3.2,3Z"/>
    <path class="st0" d="M315.7,118.6h0c-.7,1.1-1.7,1.8-4.1,1.8s-4.8-1.5-4.8-4.2,2.5-4,5.6-4.5c2.2-.3,3.3-.5,3.3-1.6s-.7-1.6-2.4-1.6-2.6.6-2.7,1.9h-3.2c.1-2.5,1.9-4.5,6-4.5s5.8,1.8,5.8,5.1v7.1c0,1.1.2,1.7.5,1.9h0c0,0-3.5,0-3.5,0-.2-.3-.3-1-.4-1.5h-.1,0ZM315.7,115.3v-2c-.6.4-1.6.6-2.6.9-1.9.4-2.9.9-2.9,2.1s.9,1.7,2.1,1.7c2.1,0,3.2-1.3,3.2-2.7h.2Z"/>
    <path class="st0" d="M320.4,106.3h1.9v-4.3h3.5v4.3h2.4v2.5h-2.4v7.3c0,1.1.5,1.4,1.4,1.4h1.1v2.7h-2.2c-1.4,0-3.7-.7-3.7-3.3v-8.1h-1.9v-2.5h0Z"/>
    <path class="st0" d="M330.1,100.8h3.6v3.3h-3.6v-3.3ZM330.1,106.3h3.6v13.8h-3.6v-13.8Z"/>
    <path class="st0" d="M335,106.3h3.7l2.2,7.2c.4,1.3.6,2.2.6,2.2h0s.2-.9.6-2.2l2.2-7.2h3.6l-4.8,13.8h-3.5l-4.8-13.8h.2Z"/>
    <path class="st0" d="M348.3,113.2c0-4.1,2.8-7.3,6.8-7.3s6.8,3.4,6.8,8.3h-10.1c.3,2.1,1.5,3.4,3.5,3.4s2.2-.6,2.7-1.7h3.6c-.5,2.5-2.7,4.5-6.2,4.5s-7.2-3.2-7.2-7.3h-.1.2ZM351.9,111.8h6.1c-.1-1.7-1.3-3-2.9-3s-2.9,1.2-3.2,3Z"/>
    <path class="st0" d="M368.5,100.8h13v2.1h-10.6v6h8.9v2h-8.9v9.1h-2.5v-19.3h.1Z"/>
    <path class="st0" d="M385,108.5h0c.9-1.4,2.2-2.5,4.2-2.5s.6,0,.9,0v2.1h0c-.3,0-.5,0-1,0-2.1,0-4.1,1.6-4.1,4.2v7.7h-2.1v-13.9h2.1v2.4Z"/>
    <path class="st0" d="M399.9,118.2h0c-.9,1.1-2.2,2.2-4.6,2.2s-4.7-1.3-4.7-3.9,2.6-4,6.1-4.5c1.9-.3,3.3-.5,3.3-2s-1.2-2.5-3.1-2.5-3.4,1-3.4,3.1h-2.1c0-2.7,1.8-4.7,5.6-4.7s5.1,1.1,5.1,4.4v6.6c0,1.2.3,1.7,1.5,1.5h0v1.6c-.3,0-.6.2-1.2.2-1.4,0-2.1-.6-2.4-2h-.1,0ZM400,115v-2.4c-.7.4-2,.9-3.2,1.1-2.1.4-4,.7-4,2.8s1.5,2.2,2.9,2.2c2.9,0,4.2-2.1,4.2-3.7h.1Z"/>
    <path class="st0" d="M405.2,106.2h2.1v2h0c.9-1.4,2.4-2.4,4.1-2.4s3,.9,3.6,2.5h0c.9-1.6,2.6-2.5,4.3-2.5,2.5,0,4.2,1.6,4.2,4.5v9.7h-2.1v-9.6c0-1.7-1.2-2.8-2.6-2.8s-3.4,1.6-3.4,3.7v8.7h-2.1v-9.6c0-1.7-1-2.8-2.4-2.8s-3.5,1.6-3.5,3.7v8.7h-2.1v-13.9h-.1Z"/>
    <path class="st0" d="M425.7,113.1c0-4.1,2.7-7.3,6.6-7.3s6.4,3.2,6.4,7.8h-10.8c.2,2.8,1.7,5,4.5,5s3.3-1,3.9-2.9h2.1c-.6,3-2.8,4.7-6,4.7s-6.7-3.3-6.7-7.3h0ZM428.1,112.1h8.3c-.1-2.8-1.6-4.5-4.1-4.5s-4,1.9-4.3,4.5h.1Z"/>
    <path class="st0" d="M439.2,106.2h2.4l2.5,8.6c.3,1.2.7,3,.7,3h0s.4-1.8.7-2.9l2.4-8.7h2.2l2.2,8.7c.3,1.2.6,2.9.6,2.9h0s.4-1.8.7-3l2.6-8.6h2.2l-4.6,13.9h-2.2l-2.4-8.4c-.3-1.2-.6-2.9-.6-2.9h0s-.4,1.7-.7,2.9l-2.4,8.4h-2.2l-4.4-13.9h.3Z"/>
    <path class="st0" d="M459.3,113.1c0-4.1,2.6-7.3,6.7-7.3s6.7,3.3,6.7,7.3-2.6,7.3-6.7,7.3-6.7-3.3-6.7-7.3ZM470.4,113.1c0-3.1-1.5-5.6-4.5-5.6s-4.5,2.5-4.5,5.6,1.5,5.5,4.5,5.5,4.5-2.5,4.5-5.5Z"/>
    <path class="st0" d="M477.1,108.5h0c.9-1.4,2.2-2.5,4.2-2.5s.6,0,.9,0v2.1h0c-.3,0-.5,0-1,0-2.1,0-4.1,1.6-4.1,4.2v7.7h-2.1v-13.9h2.1v2.4Z"/>
    <path class="st0" d="M488.3,112.6l-2,1.9v5.6h-2.1v-19.3h2.1v11.2l6.1-6h2.8l-5.3,5,6,8.9h-2.6l-4.9-7.5h0v.2Z"/>
  </g>
  <path class="st1" d="M102.5,23.6c-32.5.3-53.2,7.1-65.3,21-11.9,13.5-16.6,34.4-17.1,63.5h82.6v38.1H6.5v-12.9h83.1v-12.1H7v-6.5c0-35.6,5.3-61.3,20.4-78.6,14.9-17,38.6-25,75.1-25.5v12.9l-12.9,13.2v47.2h-8.2l-14.1-24.4-8.8,9,3.3,5.8,12.5,21.7h28.1V23.6h0Z"/>
</svg>