<?xml version="1.0" encoding="UTF-8"?>
<svg id="Layer_1" xmlns="http://www.w3.org/2000/svg" version="1.1" viewBox="0 0 604.7 150.8">
  <!-- Generator: Adobe Illustrator 29.6.1, SVG Export Plug-In . SVG Version: 2.1.1 Build 9)  -->
  <defs>
    <style>
      .st0 {
        fill: #fff;
      }

      .st1 {
        fill: #ee4137;
      }
    </style>
  </defs>
  <g>
    <path class="st0" d="M130,94.3h2.1l5.4,14.8h-2l-1.6-4.5h-5.9l-1.6,4.5h-1.9l5.4-14.8h0ZM128.6,103.1h4.8l-1.7-5c-.3-.9-.6-2.1-.6-2.1h0s-.4,1.3-.6,2.1l-1.8,5h0Z"/>
    <path class="st0" d="M140.6,99.9h0c.7-1.1,1.8-1.7,3.4-1.7s3.6,1.2,3.6,3.4v7.6h-1.7v-7.4c0-1.4-1-2.1-2.5-2.1s-3,1.2-3,3v6.6h-1.7v-10.7h1.7v1.4h.1Z"/>
    <path class="st0" d="M157.2,94.3h3.1l5.2,14.8h-3.1l-1-3.2h-5.3l-1,3.2h-3.1l5.1-14.8h0ZM156.8,103.7h4l-1.3-4.3c-.2-.7-.6-2.2-.6-2.2h0s-.3,1.5-.6,2.2l-1.3,4.3h-.1Z"/>
    <path class="st0" d="M169.4,107.8h0v1.3h-2.7v-14.8h2.8v5.4h0c.5-.9,1.5-1.6,3-1.6,2.7,0,4.6,2.3,4.6,5.7s-1.8,5.7-4.5,5.7-2.6-.6-3.2-1.6h0ZM174.2,103.8c0-1.9-.7-3.3-2.3-3.3s-2.5,1.4-2.5,3.4,1,3.2,2.6,3.2,2.2-1.2,2.2-3.2h0Z"/>
    <path class="st0" d="M177.7,105.8h2.6c.2,1.2,1.1,1.8,2.3,1.8s1.9-.4,1.9-1.2-1.4-1.1-2.8-1.4c-1.9-.4-3.7-.9-3.7-3.2s1.9-3.4,4.4-3.4,4.4,1.4,4.6,3.5h-2.6c-.1-1.2-.9-1.6-2-1.6s-1.8.4-1.8,1.2,1.4,1,2.9,1.3c1.8.3,3.7.9,3.7,3.3s-1.8,3.4-4.5,3.4-4.8-1.5-5-3.7h0Z"/>
    <path class="st0" d="M187.6,98.5h1.5v-3.3h2.8v3.3h1.8v1.8h-1.8v5.7c0,.7.4,1.1,1.1,1.1h.9v2h-1.8c-1.2,0-2.9-.5-2.9-2.6v-6.2h-1.5v-1.8h0Z"/>
    <path class="st0" d="M197.8,100.2h0c.6-1.2,1.4-1.8,2.6-1.8s.5,0,.6,0v2.5h0c-1.8-.2-3.2.7-3.2,3v5.2h-2.8v-10.7h2.7v1.7h.1Z"/>
    <path class="st0" d="M208.5,108h0c-.5.9-1.3,1.4-3.1,1.4s-3.7-1.2-3.7-3.2,1.9-3.1,4.3-3.4c1.8-.2,2.6-.4,2.6-1.2s-.6-1.3-1.8-1.3-1.9.4-2,1.5h-2.6c0-1.8,1.5-3.5,4.6-3.5s4.5,1.4,4.5,4v5.4c0,.9.1,1.3.3,1.5h-2.7c-.2-.2-.3-.7-.3-1.2h0ZM208.5,105.4v-1.6c-.5.3-1.3.4-1.9.6-1.5.3-2.2.6-2.2,1.7s.6,1.4,1.7,1.4c1.6,0,2.6-1,2.6-2h-.1Z"/>
    <path class="st0" d="M212.4,103.8c0-3.2,2-5.7,5.3-5.7s4.5,1.6,4.8,4h-2.8c-.2-1-1-1.6-1.9-1.6-1.7,0-2.6,1.3-2.6,3.3s.9,3.3,2.6,3.3,1.9-.6,2.1-1.8h2.7c-.2,2.2-1.9,4.1-4.8,4.1s-5.4-2.5-5.4-5.7h0Z"/>
    <path class="st0" d="M223.2,98.5h1.5v-3.3h2.8v3.3h1.8v1.8h-1.8v5.7c0,.7.4,1.1,1.1,1.1h.9v2h-1.8c-1.2,0-2.9-.5-2.9-2.6v-6.2h-1.5v-1.8h0Z"/>
    <path class="st0" d="M233.8,101.8c0-4.4,2.8-7.8,7.2-7.8s5.8,2.1,6.1,5h-3c-.3-1.5-1.4-2.5-3.1-2.5-2.8,0-4.1,2.2-4.1,5.2s1.6,5.2,4.1,5.2,3-1.1,3.2-2.6h3c0,1.3-.6,2.6-1.6,3.5-1.1,1-2.5,1.6-4.5,1.6-4.2,0-7.2-3.2-7.2-7.7h-.1Z"/>
    <path class="st0" d="M251.1,100.2h0c.6-1.2,1.4-1.8,2.6-1.8s.5,0,.6,0v2.5h0c-1.8-.2-3.2.7-3.2,3v5.2h-2.8v-10.7h2.7v1.7h.1Z"/>
    <path class="st0" d="M254.8,103.8c0-3.2,2.1-5.6,5.2-5.6s5.2,2.6,5.2,6.4h-7.7c.2,1.6,1.1,2.7,2.7,2.7s1.7-.5,2-1.3h2.8c-.4,1.9-2,3.5-4.8,3.5s-5.6-2.5-5.6-5.7h.1ZM257.7,102.7h4.7c0-1.4-1-2.2-2.2-2.2s-2.2.9-2.5,2.2Z"/>
    <path class="st0" d="M273.1,108h0c-.5.9-1.3,1.4-3.1,1.4s-3.7-1.2-3.7-3.2,1.9-3.1,4.3-3.4c1.8-.2,2.6-.4,2.6-1.2s-.6-1.3-1.8-1.3-1.9.4-2,1.5h-2.6c0-1.8,1.5-3.5,4.6-3.5s4.5,1.4,4.5,4v5.4c0,.9.1,1.3.3,1.5h-2.7c-.2-.2-.3-.7-.3-1.2ZM273.1,105.4v-1.6c-.5.3-1.3.4-1.9.6-1.5.3-2.2.6-2.2,1.7s.6,1.4,1.7,1.4c1.6,0,2.6-1,2.6-2h-.1Z"/>
    <path class="st0" d="M276.7,98.5h1.5v-3.3h2.8v3.3h1.8v1.8h-1.8v5.7c0,.7.4,1.1,1.1,1.1h.9v2h-1.8c-1.2,0-2.9-.5-2.9-2.6v-6.2h-1.5v-1.8h0Z"/>
    <path class="st0" d="M284.2,94.3h2.8v2.6h-2.8v-2.6ZM284.2,98.5h2.8v10.7h-2.8v-10.7Z"/>
    <path class="st0" d="M287.9,98.5h2.9l1.7,5.6c.3,1.1.4,1.7.4,1.7h0s.1-.6.4-1.7l1.7-5.6h2.8l-3.7,10.7h-2.7l-3.7-10.7h.2Z"/>
    <path class="st0" d="M298.2,103.8c0-3.2,2.1-5.6,5.2-5.6s5.2,2.6,5.2,6.4h-7.7c.2,1.6,1.1,2.7,2.7,2.7s1.7-.5,2-1.3h2.8c-.4,1.9-2,3.5-4.8,3.5s-5.6-2.5-5.6-5.7h.1ZM300.9,102.7h4.7c0-1.4-1-2.2-2.2-2.2s-2.2.9-2.5,2.2Z"/>
    <path class="st0" d="M312.8,104.2h1.8c.2,2.6,1.8,3.8,4.6,3.8s3.5-1,3.5-2.8-1.8-2.6-4.5-3.1c-2.6-.5-4.8-1.3-4.8-4.2s2-4,5-4,5.2,1.9,5.7,4.6h-1.8c-.3-2.1-1.6-3.2-3.8-3.2s-3.3.9-3.3,2.3,1.7,2.1,3.8,2.6c2.9.5,5.6,1.3,5.6,4.6s-2.2,4.4-5.4,4.4-6.2-2.3-6.3-5.3v.2Z"/>
    <path class="st0" d="M325.9,103.8c0-3.1,2-5.7,5.1-5.7s4.9,2.5,4.9,6.1h-8.3c.1,2.1,1.3,3.8,3.4,3.8s2.6-.7,3-2.2h1.6c-.5,2.3-2.1,3.6-4.6,3.6s-5.2-2.6-5.2-5.7h.1ZM327.6,103h6.4c0-2.1-1.2-3.4-3.1-3.4s-3.1,1.5-3.3,3.4Z"/>
    <path class="st0" d="M339.3,100.2h0c.6-1.1,1.8-1.9,3.2-1.9s.4,0,.6.1v1.6h-.7c-1.7,0-3.1,1.3-3.1,3.2v6h-1.7v-10.7h1.7v1.8h0Z"/>
    <path class="st0" d="M343.5,98.4h1.8l2.2,6.8c.3,1,.7,2.2.7,2.2h0s.4-1.3.7-2.2l2.2-6.8h1.7l-3.8,10.7h-1.8l-3.7-10.7h-.1Z"/>
    <path class="st0" d="M354.2,94.3h1.7v2h-1.7v-2ZM354.2,98.4h1.7v10.7h-1.7v-10.7Z"/>
    <path class="st0" d="M357.5,103.8c0-3.1,2-5.7,5.2-5.7s4.2,1.5,4.6,3.7h-1.7c-.2-1.5-1.3-2.3-2.9-2.3s-3.4,1.9-3.4,4.3,1.2,4.3,3.4,4.3,2.8-1,2.9-2.7h1.7c-.2,2.6-1.9,4.1-4.6,4.1s-5.2-2.6-5.2-5.7Z"/>
    <path class="st0" d="M368.3,103.8c0-3.1,2-5.7,5.1-5.7s4.9,2.5,4.9,6.1h-8.3c.1,2.1,1.3,3.8,3.4,3.8s2.6-.7,3-2.2h1.6c-.5,2.3-2.1,3.6-4.6,3.6s-5.2-2.6-5.2-5.7h.1ZM370.1,103h6.4c0-2.1-1.2-3.4-3.1-3.4s-3.1,1.5-3.3,3.4Z"/>
  </g>
  <g>
    <path class="st1" d="M124.4,45.9h9.6v32.7h-9.6v-32.7Z"/>
    <path class="st1" d="M136.5,62.3c0-9.8,6.7-17.1,16.5-17.1s6.7,1,9.2,2.6c3.4,2.3,5.3,6,5.8,10.1h-9.6c-.2-2.6-2.3-4.8-5.4-4.8-4.5,0-6.7,3.8-6.7,9.2s2.6,9.2,6.8,9.2,5.3-2.2,5.7-5.1h9.6c-.3,3.6-1.9,6.8-4.3,9.1-2.8,2.7-6.3,3.8-11,3.8-9.9,0-16.5-7.3-16.5-17h0Z"/>
    <path class="st1" d="M169.4,62.3c0-9.8,6.4-17.1,16.5-17.1s16.7,7.3,16.7,17.1-6.5,17-16.7,17-16.5-7.3-16.5-17ZM193,62.3c0-5.3-2.3-9.4-6.9-9.4s-6.9,4.1-6.9,9.4,2.3,9.4,6.9,9.4,6.9-4.1,6.9-9.4Z"/>
    <path class="st1" d="M205.3,45.9h9.6l10.7,18.4h0v-18.4h9.3v32.7h-9.9l-10.4-18.6h0v18.6h-9.3v-32.7Z"/>
    <path class="st0" d="M245.6,45.9h17c3.2,0,5.6.7,7.4,2.1,1.9,1.5,3.1,3.7,3.1,6.4s-1.3,5.1-4.1,6.3h0c3.5,1.3,5.7,4.3,5.7,8s-1.4,6.2-3.7,7.8c-1.9,1.4-4.5,2-7.9,2h-17.3v-32.7h-.1ZM261,58.6c1.8,0,3.1-.9,3.1-2.6s-1.3-2.7-3.1-2.7h-5.9v5.3h6-.1ZM261.9,71.1c2,0,3.5-1.3,3.5-3.2s-1.6-3.2-3.5-3.2h-6.7v6.4h6.8-.1Z"/>
    <path class="st0" d="M277,45.9h16.2c6.7,0,12.4,3.1,12.4,9.7s-1.9,6.4-5.3,8h0c2.7,1.2,4.1,3,4.6,5.6.9,4,.1,8.6,1.3,9v.5h-9.4c-1-.6-.5-4.7-1.3-7.6-.6-2.6-1.7-3.8-4.5-3.8h-4.5v11.4h-9.6v-32.7h.1ZM286.5,60.4h5.1c2.8,0,4.3-1.2,4.3-3.5s-1.4-3.5-4.2-3.5h-5.2v7Z"/>
    <path class="st0" d="M319,45.9h9.7l12.2,32.7h-10.1l-1.6-4.8h-11.1l-1.6,4.8h-9.5s12.1-32.7,12.1-32.7ZM320.2,67.1h6.7l-2-6.4c-.5-1.6-1.3-4.2-1.3-4.2h0s-.6,2.6-1.3,4.2l-2.1,6.4h0Z"/>
    <path class="st0" d="M342.7,45.9h9.6l10.7,18.4h0v-18.4h9.3v32.7h-9.9l-10.4-18.6h0v18.6h-9.3v-32.7Z"/>
    <path class="st0" d="M376.2,45.9h15.1c9.4,0,16,6.1,16,16.4s-6.2,16.3-16.3,16.3h-14.7v-32.7h0ZM390.1,70.6c4.4,0,7.5-2.9,7.5-8.3s-2.9-8.5-7.5-8.5h-4.4v16.9h4.4Z"/>
    <path class="st0" d="M415.1,68.1h9.8c.3,2.6,2.3,3.8,5.4,3.8s4.2-.7,4.2-2.7-2.2-2.5-6.2-3.5c-5.4-1.4-12.2-3.2-12.2-10.2s6.1-10.4,13.5-10.4,13,2.9,13.1,9.9h-9.5c-.3-1.8-1.6-2.9-4.2-2.9s-3.5,1-3.5,2.2c0,1.9,2.8,2.2,7.7,3.4,5.4,1.3,11,3.5,11,10.5s-6.4,10.9-14.1,10.9-14.9-3.6-15.1-11.2h0Z"/>
    <path class="st0" d="M444.7,45.9h28.2v8.1h-9.4v24.6h-9.6v-24.6h-9.3v-8.1h.1Z"/>
    <path class="st0" d="M475.3,66v-20.2h9.6v20.8c0,3,1.6,4.9,5.1,4.9s4.9-2.1,4.9-5.1v-20.6h9.6v20.2c0,8-4.8,13.1-14.6,13.1s-14.6-4.9-14.6-13.1h0Z"/>
    <path class="st0" d="M508.2,45.9h15.1c9.4,0,16,6.1,16,16.4s-6.2,16.3-16.3,16.3h-14.7v-32.7h0ZM522.1,70.6c4.4,0,7.5-2.9,7.5-8.3s-2.9-8.5-7.5-8.5h-4.4v16.9h4.4Z"/>
    <path class="st0" d="M541.8,45.9h9.6v32.7h-9.6v-32.7Z"/>
    <path class="st0" d="M554.1,62.3c0-9.8,6.4-17.1,16.5-17.1s16.7,7.3,16.7,17.1-6.5,17-16.7,17-16.5-7.3-16.5-17ZM577.6,62.3c0-5.3-2.3-9.4-6.9-9.4s-6.9,4.1-6.9,9.4,2.3,9.4,6.9,9.4,6.9-4.1,6.9-9.4Z"/>
    <path class="st0" d="M586.9,46.3h5.4v1.1h-2v5.4h-1.3v-5.4h-2v-1.1h-.1ZM593.4,46.3h1.8l1.4,5h0l1.5-5h1.8v6.6h-1.2v-5h0s-.3,1.1-.5,1.8l-1,3.2h-1.2l-1-3.2c-.2-.7-.5-1.8-.5-1.8h0v5h-1.2v-6.6h0Z"/>
  </g>
  <path class="st1" d="M12.4,69.2c5.4-6.2,12.4-11.3,19.9-14.6,7.6-3.4,15.7-5.1,24-5.1s11.7,1.9,16.4,5.6,8.1,8.8,9.6,14.5c.3,1.3,1.1,2.2,2.2,3,.7.4,1.6.6,2.5.6s.7,0,1.2-.1c2.6-.6,4.2-3.3,3.5-5.9-2-7.8-6.6-14.8-13-19.8-6.4-5-14.2-7.6-22.3-7.6s-19.2,2-28,6c-8.8,4-16.8,9.8-23.1,17.1-.9,1-1.3,2.2-1.2,3.5,0,1.3.6,2.5,1.6,3.3,2,1.7,5,1.6,6.8-.4h-.2ZM8.7,49.4c1,0,2-.3,2.9-1h0c.4-.3.9-.6,1.3-1,.3-.2.7-.5,1.3-.9,2.1-1.5,2.8-4.5,1.2-6.7-1.5-2.1-4.5-2.8-6.7-1.3-.4.3-.9.6-1.4,1-.4.3-1,.6-1.4,1.1-2.1,1.6-2.6,4.6-1,6.7,1,1.3,2.3,1.9,3.8,1.9h0ZM24.1,39.2c.6.2,1.2.3,1.8.3s1.3-.1,1.8-.3c4.5-1.8,9.2-3.3,13.9-4.2,4.8-1,9.6-1.4,14.5-1.4s5.1.2,7.6.6c2.5.4,4.9,1.1,7.3,2,2.5,1,5.2-.3,6.2-2.9.4-1.2.4-2.6-.1-3.6s-1.5-2-2.7-2.5c-2.9-1.1-5.9-1.9-9-2.5s-6.2-.9-9.3-.9c-5.6,0-11,.5-16.4,1.6-5.3,1.1-10.7,2.7-15.7,4.8-1.2.5-2.1,1.4-2.6,2.6-.5,1.2-.5,2.5,0,3.7.5,1.2,1.4,2.1,2.6,2.6h.1ZM88.2,79.5c-1.3-.3-2.6-.1-3.6.5s-1.9,1.7-2.2,3c-1.5,5.7-4.9,10.9-9.6,14.5s-10.4,5.6-16.4,5.6-4.8,2.1-4.8,4.8,2.1,4.8,4.8,4.8c8.1,0,15.9-2.7,22.3-7.6s11-12,13-19.8c.3-1.3.1-2.6-.5-3.6s-1.7-1.9-3-2.2h.1ZM8.8,109.6c2.6,0,4.7-1.9,4.8-4.5.2-4,1.1-7.8,2.3-11.5s3.1-7.3,5.4-10.5c.7-1.1,1.1-2.3.9-3.6s-1-2.3-1.9-3.1c-2.1-1.5-5.2-1.1-6.7,1.2-2.8,4-5,8.2-6.6,12.8-1.6,4.5-2.6,9.3-2.9,14.1,0,1.3.3,2.6,1.2,3.5s2,1.5,3.3,1.6h.3-.1ZM15.6,120.8c-.2-.5-.3-1.1-.4-1.4-.3-1.3-1.2-2.2-2.2-2.9s-2.5-.7-3.6-.4c-2.6.7-4.1,3.4-3.3,6,.2.6.3,1.3.5,1.7.2.5.4,1.2.5,1.7.7,2,2.6,3.2,4.6,3.2s1.1,0,1.6-.3c2.5-.9,3.8-3.6,3-6.2-.2-.4-.3-1-.4-1.4h-.2ZM103.6,54c-3.3-6.9-8.1-13.2-14-18-2-1.7-5.1-1.4-6.8.6-1.7,2-1.4,5.1.6,6.8,4.8,4.1,8.8,9.1,11.4,14.7s4.1,11.7,4.1,18.2c0,11.4-4.5,22.1-12.5,30.2-8.1,8.1-18.8,12.5-30.2,12.5s-5.7-1.2-7.8-3.2c-2-2-3.2-4.8-3.2-7.8s1.2-5.7,3.2-7.8c2-2,4.8-3.2,7.8-3.2,5.6,0,10.7-2.1,14.6-6.1s6.1-9.1,6.1-14.6-2.1-10.7-6.1-14.6-9.1-6.1-14.6-6.1-10.8.9-15.9,2.5c-5.1,1.6-10,4.1-14.4,7.2-1.1.7-1.7,1.8-1.9,3.1-.2,1.3,0,2.6.9,3.6,1.5,2.1,4.6,2.7,6.7,1.2,3.6-2.6,7.6-4.6,11.7-5.9,4.2-1.3,8.5-2,13-2s5.7,1.2,7.8,3.2c2,2,3.2,4.8,3.2,7.8s-1.2,5.7-3.2,7.8c-2,2-4.8,3.2-7.8,3.2-5.6,0-10.7,2.1-14.6,6.1-4,4-6.1,9.1-6.1,14.6s2.1,10.7,6.1,14.6c4,4,9.1,6.1,14.6,6.1,14,0,27.1-5.4,37-15.4,9.9-9.9,15.4-23.1,15.4-37s-1.7-15.3-5-22.2h-.1ZM30.3,114.9c-.6-2.2-1-4.6-1-6.9,0-7.2,2.8-13.9,7.9-19,5-5,11.9-7.9,19-7.9s4.8-2.1,4.8-4.8-2.1-4.8-4.8-4.8c-9.7,0-18.9,3.8-25.8,10.7-6.9,6.9-10.7,16-10.7,25.8s.4,6.4,1.3,9.5,2,6.1,3.6,8.8c.6,1.1,1.7,1.9,2.9,2.2.4.1.9.2,1.3.2.9,0,1.7-.2,2.5-.6,1.1-.6,1.9-1.7,2.2-2.9.3-1.3.1-2.6-.5-3.6-1.2-2-2-4.2-2.7-6.5h0Z"/>
</svg>