<?xml version="1.0" encoding="UTF-8"?>
<svg id="Layer_1" xmlns="http://www.w3.org/2000/svg" version="1.1" viewBox="0 0 280 55.2">
  <!-- Generator: Adobe Illustrator 29.6.1, SVG Export Plug-In . SVG Version: 2.1.1 Build 9)  -->
  <defs>
    <style>
      .st0 {
        fill-rule: evenodd;
      }

      .st0, .st1 {
        fill: #fff;
      }

      .st2 {
        fill: #231f20;
      }
    </style>
  </defs>
  <g>
    <path class="st1" d="M60.8,18.7h4.5l5.5,14.9h-4.6l-.7-2.2h-5.1l-.7,2.2h-4.3l5.5-14.9ZM61.3,28.4h3.1l-.9-2.9c-.2-.7-.6-1.9-.6-1.9h0s-.3,1.2-.6,1.9l-1,2.9Z"/>
    <path class="st1" d="M71.6,18.7h7.7c1.5,0,2.6.4,3.3,1,.9.7,1.4,1.7,1.4,2.9s-.6,2.3-1.9,2.9h0c1.6.6,2.6,2,2.6,3.7s-.6,2.8-1.7,3.6c-.9.6-2.1.9-3.6.9h-7.9v-14.9ZM78.6,24.5c.8,0,1.4-.4,1.4-1.2s-.6-1.2-1.4-1.2h-2.7v2.4h2.7ZM79,30.2c.9,0,1.6-.6,1.6-1.5s-.7-1.4-1.6-1.4h-3.1v2.9h3.1Z"/>
    <path class="st1" d="M85.4,28.8h4.5c.1,1.2,1.1,1.8,2.5,1.8s1.9-.3,1.9-1.2-1-1.1-2.8-1.6c-2.5-.6-5.5-1.5-5.5-4.7s2.8-4.7,6.2-4.7,5.9,1.3,6,4.6h-4.3c-.1-.8-.7-1.3-1.9-1.3s-1.6.4-1.6,1c0,.9,1.3,1,3.5,1.5,2.5.6,5,1.6,5,4.8s-2.9,5-6.4,5-6.8-1.7-6.9-5.1Z"/>
    <path class="st1" d="M98.9,18.7h12.9v3.7h-4.3v11.2h-4.4v-11.2h-4.2v-3.7Z"/>
    <path class="st1" d="M113,18.7h7.4c3.1,0,5.6,1.4,5.6,4.5s-.9,2.9-2.4,3.6h0c1.2.5,1.8,1.4,2.1,2.5.4,1.8,0,4,.6,4.1v.2h-4.3c-.4-.3-.3-2.1-.6-3.5-.3-1.2-.8-1.7-2-1.7h-2v5.2h-4.4v-14.9ZM117.3,25.3h2.3c1.3,0,1.9-.5,1.9-1.6s-.6-1.6-1.9-1.6h-2.4v3.2Z"/>
    <path class="st1" d="M132.2,18.7h4.5l5.5,14.9h-4.6l-.7-2.2h-5.1l-.7,2.2h-4.3l5.5-14.9ZM132.7,28.4h3.1l-.9-2.9c-.2-.7-.6-1.9-.6-1.9h0s-.3,1.2-.6,1.9l-1,2.9Z"/>
    <path class="st1" d="M141.3,26.2c0-4.5,3.1-7.8,7.6-7.8s3.1.4,4.2,1.2c1.5,1.1,2.4,2.7,2.6,4.6h-4.4c-.1-1.2-1.1-2.2-2.5-2.2-2.1,0-3.1,1.8-3.1,4.2s1.2,4.2,3.1,4.2,2.4-1,2.6-2.3h4.4c-.1,1.7-.9,3.1-1.9,4.1-1.3,1.2-2.9,1.8-5,1.8-4.6,0-7.6-3.3-7.6-7.8Z"/>
    <path class="st1" d="M156.2,18.7h12.9v3.7h-4.3v11.2h-4.4v-11.2h-4.2v-3.7Z"/>
    <path class="st2" d="M172.8,26.2c0-4.5,3.1-7.8,7.6-7.8s3.1.4,4.2,1.2c1.5,1.1,2.4,2.7,2.6,4.6h-4.4c-.1-1.2-1.1-2.2-2.5-2.2-2.1,0-3.1,1.8-3.1,4.2s1.2,4.2,3.1,4.2,2.4-1,2.6-2.3h4.4c-.1,1.7-.9,3.1-1.9,4.1-1.3,1.2-2.9,1.8-5,1.8-4.6,0-7.6-3.3-7.6-7.8Z"/>
    <path class="st2" d="M188.4,18.7h7.4c3.1,0,5.6,1.4,5.6,4.5s-.9,2.9-2.4,3.6h0c1.2.5,1.8,1.4,2.1,2.5.4,1.8,0,4,.6,4.1v.2h-4.3c-.4-.3-.3-2.1-.6-3.5-.3-1.2-.8-1.7-2-1.7h-2v5.2h-4.4v-14.9ZM192.8,25.3h2.3c1.3,0,1.9-.5,1.9-1.6s-.6-1.6-1.9-1.6h-2.4v3.2Z"/>
    <path class="st2" d="M202.8,18.7h11.6v3.6h-7.3v2h6.1v3.3h-6.1v2.3h7.5v3.7h-11.9v-14.9Z"/>
    <path class="st2" d="M220.7,18.7h4.5l5.5,14.9h-4.6l-.7-2.2h-5.1l-.7,2.2h-4.3l5.5-14.9ZM221.2,28.4h3.1l-.9-2.9c-.2-.7-.6-1.9-.6-1.9h0s-.3,1.2-.6,1.9l-1,2.9Z"/>
    <path class="st2" d="M229,18.7h12.9v3.7h-4.3v11.2h-4.4v-11.2h-4.2v-3.7Z"/>
    <path class="st2" d="M243.1,18.7h4.4v14.9h-4.4v-14.9Z"/>
    <path class="st2" d="M248.3,18.7h4.5l2,7c.4,1.3.7,2.9.7,2.9h0s.4-1.6.7-2.9l2-7h4.4l-4.8,14.9h-4.9l-4.8-14.9Z"/>
    <path class="st2" d="M263.5,18.7h11.6v3.6h-7.3v2h6.1v3.3h-6.1v2.3h7.5v3.7h-11.9v-14.9Z"/>
  </g>
  <path class="st0" d="M35,51.4h12.9l-11.4-24.5-12.1,7,7.6-16.7-6.5-13.9-11.2,24L3.3,51.4c8.7-5,16.2-9.5,25-14.5l6.8,14.5ZM32.3,34.7l2.3-1.4,6.2,13.5h-2.9l-5.7-12.1h0ZM17.4,38l-3.8,2.2,12-26,1.4,3.1-9.6,20.7Z"/>
</svg>