<?xml version="1.0" encoding="UTF-8"?>
<svg id="Layer_1" xmlns="http://www.w3.org/2000/svg" version="1.1" viewBox="0 0 280 55.2">
  <!-- Generator: Adobe Illustrator 29.6.1, SVG Export Plug-In . SVG Version: 2.1.1 Build 9)  -->
  <defs>
    <style>
      .st0 {
        fill: none;
      }

      .st1 {
        fill: #00b4af;
      }

      .st2 {
        fill: #d03733;
      }

      .st3 {
        fill: #fff;
      }

      .st4 {
        fill: #f0ad1e;
      }

      .st5 {
        fill: #ee4137;
      }
    </style>
  </defs>
  <g>
    <path class="st3" d="M59.5,18.9h4.3l5.4,14.5h-4.5l-.7-2.1h-4.9l-.7,2.1h-4.2s5.3-14.5,5.3-14.5ZM60,28.3h3l-.9-2.8c-.2-.7-.5-1.9-.5-1.9h0s-.3,1.2-.5,1.9l-1,2.8h0Z"/>
    <path class="st3" d="M69.9,18.9h7.5c1.4,0,2.5.3,3.2.9.9.7,1.4,1.7,1.4,2.9s-.6,2.2-1.8,2.8h0c1.6.6,2.5,1.9,2.5,3.5s-.6,2.7-1.7,3.5c-.9.6-2,.9-3.5.9h-7.6v-14.5ZM76.7,24.5c.8,0,1.4-.4,1.4-1.2s-.6-1.2-1.4-1.2h-2.6v2.3h2.6ZM77.1,30c.9,0,1.5-.5,1.5-1.4s-.7-1.4-1.6-1.4h-3v2.8h3.1Z"/>
    <path class="st3" d="M83.2,28.7h4.3c0,1.2,1,1.7,2.4,1.7s1.8-.3,1.8-1.2-1-1.1-2.8-1.5c-2.4-.6-5.4-1.4-5.4-4.5s2.7-4.6,6-4.6,5.7,1.3,5.8,4.4h-4.2c0-.8-.7-1.3-1.8-1.3s-1.6.4-1.6,1,1.2,1,3.4,1.5c2.4.6,4.9,1.5,4.9,4.6s-2.8,4.8-6.2,4.8-6.6-1.6-6.7-5h0Z"/>
    <path class="st3" d="M96.3,18.9h12.5v3.6h-4.1v10.9h-4.2v-10.9h-4.1v-3.6h-.1Z"/>
    <path class="st3" d="M110,18.9h7.2c3,0,5.5,1.4,5.5,4.3s-.8,2.8-2.4,3.5h0c1.2.5,1.8,1.3,2,2.4.4,1.7,0,3.8.6,4v.2h-4.2c-.4-.3-.2-2.1-.5-3.4-.3-1.1-.7-1.7-2-1.7h-2v5h-4.2v-14.5.2ZM114.2,25.3h2.3c1.2,0,1.9-.5,1.9-1.5s-.6-1.6-1.8-1.6h-2.3v3.1h0Z"/>
    <path class="st3" d="M128.5,18.9h4.3l5.4,14.5h-4.5l-.7-2.1h-4.9l-.7,2.1h-4.2s5.3-14.5,5.3-14.5ZM129,28.3h3l-.9-2.8c-.2-.7-.5-1.9-.5-1.9h0s-.3,1.2-.5,1.9l-1,2.8h-.1Z"/>
    <path class="st3" d="M137.4,26.1c0-4.3,3-7.5,7.3-7.5s3,.4,4,1.1c1.5,1,2.4,2.7,2.5,4.5h-4.2c-.1-1.1-1.1-2.1-2.4-2.1-2,0-3,1.7-3,4.1s1.1,4.1,3,4.1,2.4-1,2.5-2.3h4.3c-.1,1.6-.8,3-1.9,4-1.2,1.2-2.8,1.7-4.9,1.7-4.4,0-7.3-3.2-7.3-7.5h0Z"/>
    <path class="st3" d="M151.7,18.9h12.5v3.6h-4.1v10.9h-4.2v-10.9h-4.1v-3.6h0Z"/>
    <path d="M167.8,26.1c0-4.3,3-7.5,7.3-7.5s3,.4,4,1.1c1.5,1,2.4,2.7,2.5,4.5h-4.2c-.1-1.1-1.1-2.1-2.4-2.1-2,0-3,1.7-3,4.1s1.1,4.1,3,4.1,2.4-1,2.5-2.3h4.3c-.1,1.6-.8,3-1.9,4-1.2,1.2-2.8,1.7-4.9,1.7-4.4,0-7.3-3.2-7.3-7.5h0Z"/>
    <path d="M182.9,18.9h7.2c3,0,5.5,1.4,5.5,4.3s-.8,2.8-2.4,3.5h0c1.2.5,1.8,1.3,2,2.4.4,1.7,0,3.8.6,4v.2h-4.2c-.4-.3-.2-2.1-.5-3.4-.3-1.1-.7-1.7-2-1.7h-2v5h-4.2v-14.5.2ZM187.2,25.3h2.3c1.2,0,1.9-.5,1.9-1.5s-.6-1.6-1.8-1.6h-2.3v3.1h0Z"/>
    <path d="M196.9,18.9h11.3v3.4h-7v2h5.9v3.2h-5.9v2.3h7.2v3.6h-11.5s0-14.5,0-14.5Z"/>
    <path d="M214.2,18.9h4.3l5.4,14.5h-4.5l-.7-2.1h-4.9l-.7,2.1h-4.2l5.3-14.5h0ZM214.7,28.3h3l-.9-2.8c-.2-.7-.5-1.9-.5-1.9h0s-.3,1.2-.5,1.9l-1,2.8h-.1Z"/>
    <path d="M222.2,18.9h12.5v3.6h-4.1v10.9h-4.2v-10.9h-4.1v-3.6h0Z"/>
    <path d="M235.9,18.9h4.2v14.5h-4.2v-14.5Z"/>
    <path d="M240.9,18.9h4.4l2,6.8c.4,1.2.7,2.8.7,2.8h0s.4-1.6.7-2.8l1.9-6.8h4.3l-4.7,14.5h-4.7l-4.6-14.5h0Z"/>
    <path d="M255.7,18.9h11.3v3.4h-7v2h5.9v3.2h-5.9v2.3h7.2v3.6h-11.5v-14.5h0Z"/>
  </g>
  <g>
    <polygon class="st0" points="30.1 44.1 27.3 47.4 27.3 47.4 30.1 44.1"/>
    <polygon class="st2" points="27.4 26.7 31.7 17.2 25.6 3.9 25.4 3.6 14.9 26.7 27.4 26.7"/>
    <path class="st1" d="M19.2,41.8l-5-13.6L3.8,51c5.4-3.2,10.4-6.1,15.4-9.2Z"/>
    <path class="st4" d="M47,51l-8-17.6-8.9,10.7-2.7,3.3-.2,3.6h19.9,0Z"/>
    <path class="st2" d="M39,33.4l-3-6.7-11.7,7,3.2-7h-12.6l-.3.6-.4.9,5,13.6c2.8-1.7,5.7-3.4,8.7-5.2l-.6,10.7,2.7-3.3,8.9-10.7h0Z"/>
    <polygon class="st5" points="39 33.4 30.1 44.1 39 33.4 39 33.4"/>
  </g>
</svg>