<?xml version="1.0" encoding="UTF-8"?>
<svg id="Layer_1" xmlns="http://www.w3.org/2000/svg" version="1.1" viewBox="0 0 164 55.2">
  <!-- Generator: Adobe Illustrator 29.4.0, SVG Export Plug-In . SVG Version: 2.1.0 Build 152)  -->
  <defs>
    <style>
      .st0 {
        fill: #fff;
      }

      .st0, .st1 {
        fill-rule: evenodd;
      }
    </style>
  </defs>
  <path class="st0" d="M107.6,27.1v-8.7c0-.1,0-.2.2-.2h2.7s.2,0,.2-.2v-2.9s0-.2-.2-.2h-2.7c-.1,0-.2,0-.2-.2v-4.3s0-.2-.2-.2h-2.8s-.2,0-.2.2v17.5c0,1.4,1.1,2.5,2.5,2.5h3.6s.2,0,.2-.2v-2.8s0-.2-.2-.2h-2.7c-.1,0-.2,0-.2-.2h0v.1Z"/>
  <path class="st0" d="M157.7,27.2v-8.7c0-.1,0-.2.2-.2h2.7s.2,0,.2-.2v-2.9s0-.2-.2-.2h-2.7c-.1,0-.2,0-.2-.2v-4.3s0-.2-.2-.2h-2.8s-.2,0-.2.2v17.5c0,1.4,1.1,2.5,2.5,2.5h3.6s.2,0,.2-.2v-2.8s0-.2-.2-.2h-2.7c-.1,0-.2,0-.2-.2h0v.1Z"/>
  <path class="st0" d="M142.1,23.4v-1.6c.4-2.3,2.4-4,4.7-4s2.5.5,3.4,1.4l.4.4h.2l2-2v-.2l-.4-.4c-1.5-1.5-3.5-2.3-5.6-2.3-4,0-7.4,3-7.9,7v2c.5,4,3.9,7,7.9,7s4.1-.8,5.6-2.3l.4-.4v-.2l-2-2h-.2l-.4.4c-.9.9-2.1,1.4-3.4,1.4-2.3,0-4.4-1.7-4.7-4h0v-.2Z"/>
  <path class="st0" d="M93.9,19.2v-.4c0-.4.4-.6.8-.6h8s.2,0,.2-.2v-2.9s0-.2-.2-.2h-8c-1.5,0-2.8.9-3.5,2.2-.2.3-.3.6-.4,1,0,.4-.1.8-.1,1.2,0,1,.5,1.7,1.1,2.4.4.4.8.7,1.2.9l6.8,3.1c.2.1.4.3.5.6v.4c0,.4-.4.6-.8.6h-8s-.2,0-.2.2v2.9s0,.2.2.2h8c1.5,0,2.8-.9,3.5-2.2.2-.3.3-.6.4-1,0-.4.1-.8.1-1.2,0-1-.5-1.7-1.1-2.4-.4-.4-.8-.7-1.2-.9l-6.8-3.1c-.2-.1-.4-.3-.5-.6h0Z"/>
  <path class="st0" d="M112.3,30.4s0,.2.2.2h2.8s.2,0,.2-.2v-8.2c.4-2.3,2.4-4,4.7-4h.5s.2,0,.2-.2v-2.8s0-.2-.2-.2h-.5c-4,0-7.4,3-7.9,7v1c0,.3,0,.1,0,.1v7.2h0v.1Z"/>
  <path class="st0" d="M80.6,14.7c-.7,0-1.4.3-2.1.5v3.4h.2c.6-.5,1.3-.8,2.1-.9h1.6c2.3.4,3.9,2.4,3.9,4.7s-1.7,4.4-4,4.7h-1.6c-2.3-.4-3.9-2.4-3.9-4.7v-12.1s0-.2-.2-.2h-2.8s-.2,0-.2.2v12.1c0,4,3,7.4,7,7.9h2c4-.5,7-3.9,7-7.9s-3-7.4-7-7.9h-2v.2Z"/>
  <path class="st0" d="M63,14.7c-4,.5-7,3.9-7,7.9s3,7.4,7,7.9h2c.7,0,1.4-.3,2.1-.5v-3.4h-.2c-.6.5-1.3.8-2.1.9h-1.6c-2.3-.4-3.9-2.4-3.9-4.7s1.7-4.4,4-4.7h1.6c2.3.4,3.9,2.4,3.9,4.7v7.6s0,.2.2.2h2.8s.2,0,.2-.2v-7.6c0-4-3-7.4-7-7.9h-2v-.2Z"/>
  <path class="st0" d="M128.3,14.7c-4,.5-7,3.9-7,7.9s3,7.4,7,7.9h2c.7,0,1.4-.3,2.1-.5v-3.4h-.2c-.6.5-1.3.8-2.1.9h-1.6c-2.3-.4-3.9-2.4-3.9-4.7s1.7-4.4,4-4.7h1.6c2.3.4,3.9,2.4,3.9,4.7v7.6s0,.2.2.2h2.8s.2,0,.2-.2v-7.6c0-4-3-7.4-7-7.9h-2v-.2Z"/>
  <path class="st0" d="M94.4,41.3v-4.9s0-.1.1-.1h1.5v-1.6h-1.5s-.1,0-.1-.1v-2.2h-1.6v9.6c0,.8.6,1.4,1.4,1.4h2v-1.6h-1.5s-.1,0-.1-.1h0l-.2-.4Z"/>
  <path class="st0" d="M58,39.3v-.8c.2-1.3,1.3-2.2,2.6-2.2s1.4.3,1.9.8l.2.2h.1l1.1-1.1v-.1l-.2-.2c-.8-.8-2-1.3-3.1-1.3-2.2,0-4.1,1.7-4.4,3.9v1.2c.3,2.2,2.2,3.9,4.4,3.9s2.3-.5,3.1-1.3l.2-.2v-.1l-1.1-1.1h-.1l-.2.2c-.5.5-1.2.8-1.9.8-1.3,0-2.4-.9-2.6-2.2h0v-.4Z"/>
  <path class="st0" d="M105.7,40.5l-2.6-5.9h-1.7l3.8,8.4h1.5l3.8-8.4h-1.7l-2.6,5.9h-.5Z"/>
  <path class="st0" d="M65.6,43.1h1.6v-4h0v-.4c.2-1.3,1.3-2.2,2.6-2.2h.3v-1.6h-.3c-2.2,0-4.1,1.7-4.4,3.9v.6c0,.2,0,0,0,0v4h0l.2-.3Z"/>
  <path class="st0" d="M97.9,34.6h0v8.4h1.6v-8.4h-1.6ZM98.7,31.6c-.6,0-1.1.5-1.1,1.1s.5,1.1,1.1,1.1,1.1-.5,1.1-1.1-.5-1.1-1.1-1.1h0Z"/>
  <path class="st0" d="M86,34.5c-2.2.3-3.9,2.2-3.9,4.4s1.7,4.1,3.9,4.4h1.2c.4,0,.8-.2,1.2-.3h0v-1.8h0c-.3.3-.7.4-1.2.5h-.8c-1.3-.2-2.2-1.4-2.2-2.6s.9-2.4,2.2-2.6h.8c1.3.2,2.2,1.4,2.2,2.6v4.2h1.6v-4.2c0-2.2-1.7-4.1-3.9-4.4h-1.2l.1-.2Z"/>
  <path class="st0" d="M77.9,40.8c-.3.3-.6.5-1,.6h0c-.3,0-.6.1-.8.1-.6,0-1.2-.2-1.7-.6-.3-.3-.6-.6-.8-1.1h0c-.1-.3-.2-.7-.2-1s0-.7.2-1h0c.2-.4.5-.8.8-1.1h0c.5-.4,1-.6,1.7-.6s1.2.2,1.7.6c.3.3.6.6.8,1.1h0v.1h-4.3c0,.3-.1.6-.1.9s0,.6.1.9h6.1v-1.5c-.3-2.2-2.2-3.9-4.4-3.9s-4.1,1.7-4.4,3.9v1.2c.3,2.2,2.2,3.9,4.4,3.9s2.3-.5,3.1-1.3l.2-.2v-.1l-1.1-1.1h-.1l-.2.2h0Z"/>
  <path class="st0" d="M117.2,40.8c-.3.3-.6.5-1,.6h0c-.3,0-.6.1-.8.1-.6,0-1.2-.2-1.7-.6-.3-.3-.6-.6-.8-1.1h0c-.1-.3-.2-.7-.2-1s0-.7.2-1h0c.2-.4.5-.8.8-1.1h0c.5-.4,1-.6,1.7-.6s1.2.2,1.7.6c.3.3.6.6.8,1.1h0v.1h-4.3c0,.3-.1.6-.1.9s0,.6.1.9h6.1v-1.5c-.3-2.2-2.2-3.9-4.4-3.9s-4.1,1.7-4.4,3.9v1.2c.3,2.2,2.2,3.9,4.4,3.9s2.3-.5,3.1-1.3l.2-.2v-.1l-1.1-1.1h-.1l-.2.2h0Z"/>
  <g>
    <path class="st1" d="M41.4,34.8L32,3.7h-15.1L6.4,38.7h11.2l6.9-23,4.9,16.3c4.1.4,8.1,1.4,12,2.8"/>
    <path class="st1" d="M24.5,34.7c8.2,0,16,2.2,22.6,6.1l-5.4,9.4c-5.1-2.9-10.9-4.6-17.2-4.6s-12.2,1.7-17.2,4.6l-5.4-9.4c6.7-3.9,14.4-6.1,22.6-6.1"/>
  </g>
</svg>