<?xml version="1.0" encoding="UTF-8"?>
<svg id="Layer_1" xmlns="http://www.w3.org/2000/svg" version="1.1" viewBox="0 0 267.9 54.6">
  <!-- Generator: Adobe Illustrator 29.6.1, SVG Export Plug-In . SVG Version: 2.1.1 Build 9)  -->
  <defs>
    <style>
      .st0 {
        fill: none;
      }

      .st1 {
        fill: #00b4af;
      }

      .st2 {
        fill: #231f20;
      }

      .st3 {
        fill: #d03733;
      }

      .st4 {
        fill: #f0ad1e;
      }

      .st5 {
        fill: #ee4137;
      }
    </style>
  </defs>
  <g>
    <path class="st5" d="M57,19.4h4.3l5.4,14.5h-4.5l-.7-2.1h-4.9l-.7,2.1h-4.2l5.3-14.5ZM57.5,28.8h3l-.9-2.8c-.2-.7-.5-1.9-.5-1.9h0s-.3,1.2-.5,1.9l-1,2.8Z"/>
    <path class="st5" d="M67.4,19.4h7.5c1.4,0,2.5.3,3.2.9.9.7,1.4,1.7,1.4,2.9s-.6,2.2-1.8,2.8h0c1.6.6,2.5,1.9,2.5,3.5s-.6,2.7-1.7,3.5c-.9.6-2,.9-3.5.9h-7.6v-14.5ZM74.2,25c.8,0,1.4-.4,1.4-1.2s-.6-1.2-1.4-1.2h-2.6v2.3h2.6ZM74.6,30.5c.9,0,1.5-.5,1.5-1.4s-.7-1.4-1.6-1.4h-3v2.8h3Z"/>
    <path class="st5" d="M80.7,29.2h4.3c.1,1.2,1,1.7,2.4,1.7s1.8-.3,1.8-1.2-1-1.1-2.8-1.5c-2.4-.6-5.4-1.4-5.4-4.5s2.7-4.6,6-4.6,5.7,1.3,5.8,4.4h-4.2c-.1-.8-.7-1.3-1.8-1.3s-1.6.4-1.6,1c0,.8,1.2,1,3.4,1.5,2.4.6,4.9,1.5,4.9,4.6s-2.8,4.8-6.2,4.8-6.6-1.6-6.7-5Z"/>
    <path class="st5" d="M93.8,19.4h12.5v3.6h-4.1v10.9h-4.2v-10.9h-4.1v-3.6Z"/>
    <path class="st5" d="M107.5,19.4h7.2c3,0,5.5,1.4,5.5,4.3s-.8,2.8-2.4,3.5h0c1.2.5,1.8,1.3,2,2.4.4,1.7,0,3.8.6,4v.2h-4.2c-.4-.3-.2-2.1-.5-3.4-.3-1.1-.7-1.7-2-1.7h-2v5h-4.2v-14.5ZM111.7,25.8h2.3c1.2,0,1.9-.5,1.9-1.5s-.6-1.6-1.8-1.6h-2.3v3.1Z"/>
    <path class="st5" d="M126,19.4h4.3l5.4,14.5h-4.5l-.7-2.1h-4.9l-.7,2.1h-4.2l5.3-14.5ZM126.5,28.8h3l-.9-2.8c-.2-.7-.5-1.9-.5-1.9h0s-.3,1.2-.5,1.9l-1,2.8Z"/>
    <path class="st5" d="M134.9,26.6c0-4.3,3-7.5,7.3-7.5s3,.4,4,1.1c1.5,1,2.4,2.7,2.5,4.5h-4.2c-.1-1.1-1.1-2.1-2.4-2.1-2,0-3,1.7-3,4.1s1.1,4.1,3,4.1,2.4-1,2.5-2.3h4.3c-.1,1.6-.8,3-1.9,4-1.2,1.2-2.8,1.7-4.9,1.7-4.4,0-7.3-3.2-7.3-7.5Z"/>
    <path class="st5" d="M149.2,19.4h12.5v3.6h-4.1v10.9h-4.2v-10.9h-4.1v-3.6Z"/>
    <path class="st2" d="M165.3,26.6c0-4.3,3-7.5,7.3-7.5s3,.4,4,1.1c1.5,1,2.4,2.7,2.5,4.5h-4.2c-.1-1.1-1.1-2.1-2.4-2.1-2,0-3,1.7-3,4.1s1.1,4.1,3,4.1,2.4-1,2.5-2.3h4.3c-.1,1.6-.8,3-1.9,4-1.2,1.2-2.8,1.7-4.9,1.7-4.4,0-7.3-3.2-7.3-7.5Z"/>
    <path class="st2" d="M180.4,19.4h7.2c3,0,5.5,1.4,5.5,4.3s-.8,2.8-2.4,3.5h0c1.2.5,1.8,1.3,2,2.4.4,1.7,0,3.8.6,4v.2h-4.2c-.4-.3-.2-2.1-.5-3.4-.3-1.1-.7-1.7-2-1.7h-2v5h-4.2v-14.5ZM184.7,25.8h2.3c1.2,0,1.9-.5,1.9-1.5s-.6-1.6-1.8-1.6h-2.3v3.1Z"/>
    <path class="st2" d="M194.4,19.4h11.3v3.4h-7v2h5.9v3.2h-5.9v2.3h7.2v3.6h-11.5v-14.5Z"/>
    <path class="st2" d="M211.7,19.4h4.3l5.4,14.5h-4.5l-.7-2.1h-4.9l-.7,2.1h-4.2l5.3-14.5ZM212.2,28.8h3l-.9-2.8c-.2-.7-.5-1.9-.5-1.9h0s-.3,1.2-.5,1.9l-1,2.8Z"/>
    <path class="st2" d="M219.7,19.4h12.5v3.6h-4.1v10.9h-4.2v-10.9h-4.1v-3.6Z"/>
    <path class="st2" d="M233.4,19.4h4.2v14.5h-4.2v-14.5Z"/>
    <path class="st2" d="M238.4,19.4h4.4l2,6.8c.4,1.2.7,2.8.7,2.8h0s.4-1.6.7-2.8l1.9-6.8h4.3l-4.7,14.5h-4.7l-4.6-14.5Z"/>
    <path class="st2" d="M253.2,19.4h11.3v3.4h-7v2h5.9v3.2h-5.9v2.3h7.2v3.6h-11.5v-14.5Z"/>
  </g>
  <g>
    <polygon class="st0" points="27.6 44.6 24.8 47.9 24.8 47.9 27.6 44.6"/>
    <polygon class="st3" points="24.9 27.2 29.2 17.7 23.1 4.4 22.9 4.1 12.4 27.2 24.9 27.2"/>
    <path class="st1" d="M16.7,42.3l-5-13.6L1.3,51.5c5.4-3.2,10.4-6.1,15.4-9.2Z"/>
    <path class="st4" d="M44.5,51.5l-8-17.6-8.9,10.7-2.7,3.3-.2,3.6h19.9Z"/>
    <path class="st5" d="M36.5,33.9l-3-6.7-11.7,7,3.2-7h-12.6l-.3.6-.4.9,5,13.6c2.8-1.7,5.7-3.4,8.7-5.2l-.6,10.7,2.7-3.3,8.9-10.7Z"/>
    <polygon class="st5" points="36.5 33.9 27.6 44.6 36.5 33.9 36.5 33.9"/>
  </g>
</svg>