<?xml version="1.0" encoding="UTF-8"?>
<svg id="Layer_1" xmlns="http://www.w3.org/2000/svg" version="1.1" viewBox="0 0 267.9 54.6">
  <!-- Generator: Adobe Illustrator 29.6.1, SVG Export Plug-In . SVG Version: 2.1.1 Build 9)  -->
  <defs>
    <style>
      .st0 {
        fill: #fff;
      }

      .st1 {
        fill-rule: evenodd;
      }

      .st1, .st2 {
        fill: #ee4137;
      }
    </style>
  </defs>
  <g>
    <path class="st2" d="M56.9,19.2h4.3l5.3,14.4h-4.5l-.7-2.1h-4.9l-.7,2.1h-4.2l5.3-14.4h.1ZM57.5,28.6h3l-.9-2.8c-.2-.7-.5-1.9-.5-1.9h0s-.3,1.1-.5,1.9l-.9,2.8h-.2Z"/>
    <path class="st2" d="M67.4,19.2h7.5c1.4,0,2.5.3,3.2.9.9.7,1.4,1.7,1.4,2.8s-.6,2.2-1.8,2.8h0c1.6.6,2.5,1.9,2.5,3.5s-.6,2.7-1.7,3.4c-.9.6-2,.9-3.5.9h-7.6v-14.4h0ZM74.1,24.8c.8,0,1.4-.4,1.4-1.1s-.6-1.2-1.4-1.2h-2.6v2.3s2.6,0,2.6,0ZM74.5,30.3c.9,0,1.5-.5,1.5-1.4s-.7-1.4-1.6-1.4h-3v2.8h3.1Z"/>
    <path class="st2" d="M80.6,29h4.3c0,1.2,1,1.7,2.4,1.7s1.8-.3,1.8-1.2-1-1.1-2.7-1.5c-2.4-.6-5.3-1.4-5.3-4.5s2.7-4.6,6-4.6,5.7,1.3,5.8,4.4h-4.2c0-.8-.7-1.3-1.8-1.3s-1.6.4-1.6,1,1.2,1,3.4,1.5c2.4.6,4.8,1.5,4.8,4.6s-2.8,4.8-6.2,4.8-6.6-1.6-6.7-4.9h0Z"/>
    <path class="st2" d="M93.7,19.2h12.4v3.6h-4.1v10.8h-4.2v-10.8h-4.1s0-3.6,0-3.6Z"/>
    <path class="st2" d="M107.3,19.2h7.2c2.9,0,5.4,1.4,5.4,4.3s-.8,2.8-2.4,3.5h0c1.2.5,1.8,1.3,2,2.4.4,1.7,0,3.8.6,4v.2h-4.2c-.4-.3-.2-2.1-.5-3.3-.3-1.1-.7-1.7-2-1.7h-2v5h-4.2v-14.4h0ZM111.5,25.6h2.3c1.2,0,1.9-.5,1.9-1.5s-.6-1.6-1.8-1.6h-2.3v3.1h0Z"/>
    <path class="st2" d="M125.8,19.2h4.3l5.3,14.4h-4.5l-.7-2.1h-4.9l-.7,2.1h-4.2l5.3-14.4h0ZM126.3,28.6h3l-.9-2.8c-.2-.7-.5-1.9-.5-1.9h0s-.3,1.1-.5,1.9l-.9,2.8h-.2Z"/>
    <path class="st2" d="M134.6,26.5c0-4.3,3-7.5,7.3-7.5s3,.4,4,1.1c1.5,1,2.4,2.6,2.5,4.5h-4.2c-.1-1.1-1-2.1-2.4-2.1-2,0-3,1.7-3,4.1s1.1,4.1,3,4.1,2.4-1,2.5-2.3h4.3c-.1,1.6-.8,3-1.9,4-1.2,1.2-2.8,1.7-4.9,1.7-4.4,0-7.3-3.2-7.3-7.5h0Z"/>
    <path class="st2" d="M148.9,19.2h12.4v3.6h-4.1v10.8h-4.2v-10.8h-4.1v-3.6h0Z"/>
    <path class="st0" d="M165,26.5c0-4.3,3-7.5,7.3-7.5s3,.4,4,1.1c1.5,1,2.4,2.6,2.5,4.5h-4.2c-.1-1.1-1-2.1-2.4-2.1-2,0-3,1.7-3,4.1s1.1,4.1,3,4.1,2.4-1,2.5-2.3h4.3c-.1,1.6-.8,3-1.9,4-1.2,1.2-2.8,1.7-4.9,1.7-4.4,0-7.3-3.2-7.3-7.5h0Z"/>
    <path class="st0" d="M180,19.2h7.2c2.9,0,5.4,1.4,5.4,4.3s-.8,2.8-2.4,3.5h0c1.2.5,1.8,1.3,2,2.4.4,1.7,0,3.8.6,4v.2h-4.2c-.4-.3-.2-2.1-.5-3.3-.3-1.1-.7-1.7-2-1.7h-2v5h-4.2v-14.4h0ZM184.3,25.6h2.3c1.2,0,1.9-.5,1.9-1.5s-.6-1.6-1.8-1.6h-2.3v3.1h0Z"/>
    <path class="st0" d="M194,19.2h11.2v3.4h-7v2h5.9v3.2h-5.9v2.3h7.2v3.6h-11.4v-14.4h0Z"/>
    <path class="st0" d="M211.2,19.2h4.3l5.3,14.4h-4.5l-.7-2.1h-4.9l-.7,2.1h-4.2l5.3-14.4h0ZM211.7,28.6h3l-.9-2.8c-.2-.7-.5-1.9-.5-1.9h0s-.3,1.1-.5,1.9l-.9,2.8h-.2Z"/>
    <path class="st0" d="M219.3,19.2h12.4v3.6h-4.1v10.8h-4.2v-10.8h-4.1v-3.6h0Z"/>
    <path class="st0" d="M232.8,19.2h4.2v14.4h-4.2s0-14.4,0-14.4Z"/>
    <path class="st0" d="M237.8,19.2h4.3l2,6.8c.4,1.2.7,2.8.7,2.8h0s.4-1.6.7-2.8l1.9-6.8h4.3l-4.6,14.4h-4.7l-4.6-14.4h0Z"/>
    <path class="st0" d="M252.6,19.2h11.2v3.4h-7v2h5.9v3.2h-5.9v2.3h7.2v3.6h-11.4v-14.4h0Z"/>
  </g>
  <path class="st1" d="M32.1,50.8h12.5l-11-23.7-11.6,6.8,7.4-16.1-6.2-13.4-10.8,23.2L1.5,50.8c8.4-4.9,15.7-9.1,24.1-14l6.5,14ZM29.4,34.7l2.2-1.4,6,13.1h-2.8l-5.5-11.7h0ZM15.1,37.9l-3.7,2.1,11.6-25.1,1.4,3s-9.3,20-9.3,20Z"/>
</svg>