<?xml version="1.0" encoding="UTF-8"?>
<svg id="Layer_1" xmlns="http://www.w3.org/2000/svg" version="1.1" viewBox="0 0 164 54.6">
  <!-- Generator: Adobe Illustrator 29.2.1, SVG Export Plug-In . SVG Version: 2.1.0 Build 116)  -->
  <defs>
    <style>
      .st0 {
        fill: #231f20;
      }

      .st1, .st2, .st3 {
        fill-rule: evenodd;
      }

      .st2, .st4 {
        display: none;
      }

      .st3, .st5 {
        fill: #ee4137;
      }
    </style>
  </defs>
  <path class="st1" d="M107.6,27.1v-8.7c0-.1,0-.2.2-.2h2.7s.2,0,.2-.2v-2.9s0-.2-.2-.2h-2.7c0,0-.2,0-.2-.2v-4.3s0-.2-.2-.2h-2.8s-.2,0-.2.2v17.5c0,1.4,1.1,2.5,2.5,2.5h3.6s.2,0,.2-.2v-2.8s0-.2-.2-.2h-2.7c0,0-.2,0-.2-.2h0Z"/>
  <path class="st1" d="M157.7,27.2v-8.7c0-.1,0-.2.2-.2h2.7s.2,0,.2-.2v-2.9s0-.2-.2-.2h-2.7c-.1,0-.2,0-.2-.2v-4.3s0-.2-.2-.2h-2.8s-.2,0-.2.2v17.5c0,1.4,1.1,2.5,2.5,2.5h3.6s.2,0,.2-.2v-2.8s0-.2-.2-.2h-2.7c-.1,0-.2,0-.2-.2h0Z"/>
  <path class="st1" d="M142.1,23.4v-1.6c.4-2.3,2.4-4,4.7-4s2.5.5,3.4,1.4l.4.4h.2l2-2v-.2l-.4-.4c-1.5-1.5-3.5-2.3-5.6-2.3-4,0-7.4,3-7.9,7v2c.5,4,3.9,7,7.9,7s4.1-.8,5.6-2.3l.4-.4v-.2l-2-2h-.2l-.4.4c-.9.9-2.1,1.4-3.4,1.4-2.3,0-4.4-1.7-4.7-4h0v-.2Z"/>
  <path class="st1" d="M93.9,19.2v-.4c0-.4.4-.6.8-.6h8s.2,0,.2-.2v-2.9s0-.2-.2-.2h-8c-1.5,0-2.8.9-3.5,2.2-.2.3-.3.6-.4,1,0,.4,0,.8,0,1.2,0,1,.5,1.7,1.1,2.4.4.4.8.7,1.2.9l6.8,3.1c.2.1.4.3.5.6v.4c0,.4-.4.6-.8.6h-8s-.2,0-.2.2v2.9s0,.2.2.2h8c1.5,0,2.8-.9,3.5-2.2.2-.3.3-.6.4-1,0-.4,0-.8,0-1.2,0-1-.5-1.7-1.1-2.4-.4-.4-.8-.7-1.2-.9l-6.8-3.1c-.2-.1-.4-.3-.5-.6h0Z"/>
  <path class="st1" d="M112.3,30.4s0,.2.2.2h2.8s.2,0,.2-.2v-8.2c.4-2.3,2.4-4,4.7-4h.5s.2,0,.2-.2v-2.8s0-.2-.2-.2h-.5c-4,0-7.4,3-7.9,7v1c0,.3,0,.1,0,.1v7.2h0Z"/>
  <path class="st1" d="M80.6,14.7c-.7,0-1.4.3-2.1.5h0v3.3h0c0,.1,0,.1.2.1.6-.5,1.3-.8,2.1-.9h1.6c2.3.4,3.9,2.4,3.9,4.7s-1.7,4.4-4,4.7h-1.6c-2.3-.4-3.9-2.4-3.9-4.7v-12.1s0-.2-.2-.2h-2.8s-.2,0-.2.2v12.1c0,4,3,7.4,7,7.9h2c4-.5,7-3.9,7-7.9s-3-7.4-7-7.9h-2v.2Z"/>
  <path class="st1" d="M63,14.7c-4,.5-7,3.9-7,7.9s3,7.4,7,7.9h2c.7,0,1.4-.3,2.1-.5h0v-3.3h0c0-.1,0-.1-.2-.1-.6.5-1.3.8-2.1.9h-1.6c-2.3-.4-3.9-2.4-3.9-4.7s1.7-4.4,4-4.7h1.6c2.3.4,3.9,2.4,3.9,4.7v7.6s0,.2.2.2h2.8s.2,0,.2-.2v-7.6c0-4-3-7.4-7-7.9h-2v-.2Z"/>
  <path class="st1" d="M128.3,14.7c-4,.5-7,3.9-7,7.9s3,7.4,7,7.9h2c.7,0,1.4-.3,2.1-.5h0v-3.3h0c0-.1-.1-.1-.2-.1-.6.5-1.3.8-2.1.9h-1.6c-2.3-.4-3.9-2.4-3.9-4.7s1.7-4.4,4-4.7h1.6c2.3.4,3.9,2.4,3.9,4.7v7.6s0,.2.2.2h2.8s.2,0,.2-.2v-7.6c0-4-3-7.4-7-7.9h-2v-.2Z"/>
  <path class="st1" d="M94.4,41.3v-4.9s0,0,0,0h1.5v-1.6h-1.5s0,0,0,0v-2.2h-1.6v9.6c0,.8.6,1.4,1.4,1.4h2v-1.6h-1.5s0,0,0,0h0l-.2-.4Z"/>
  <path class="st1" d="M58,39.3v-.8c.2-1.3,1.3-2.2,2.6-2.2s1.4.3,1.9.8l.2.2h0l1.1-1.1h0c0,0-.2-.3-.2-.3-.8-.8-2-1.3-3.1-1.3-2.2,0-4.1,1.7-4.4,3.9v1.2c.3,2.2,2.2,3.9,4.4,3.9s2.3-.5,3.1-1.3l.2-.2h0c0,0-1.1-1.2-1.1-1.2h0l-.2.2c-.5.5-1.2.8-1.9.8-1.3,0-2.4-.9-2.6-2.2h0v-.4Z"/>
  <path class="st1" d="M105.7,40.5l-2.6-5.9h-1.7l3.8,8.4h1.5l3.8-8.4h-1.7l-2.6,5.9h-.5Z"/>
  <path class="st1" d="M65.6,43.1h1.6v-4h0v-.4c.2-1.3,1.3-2.2,2.6-2.2h.3v-1.6h-.3c-2.2,0-4.1,1.7-4.4,3.9v.6c0,.2,0,0,0,0v4h0l.2-.3Z"/>
  <path class="st1" d="M97.9,34.6h0v8.4h1.6v-8.4h-1.6ZM98.7,31.6c-.6,0-1.1.5-1.1,1.1s.5,1.1,1.1,1.1,1.1-.5,1.1-1.1-.5-1.1-1.1-1.1h0Z"/>
  <path class="st1" d="M86,34.5c-2.2.3-3.9,2.2-3.9,4.4s1.7,4.1,3.9,4.4h1.2c.4,0,.8-.2,1.2-.3h0v-1.8h0c-.3.3-.7.4-1.2.5h-.8c-1.3-.2-2.2-1.4-2.2-2.6s.9-2.4,2.2-2.6h.8c1.3.2,2.2,1.4,2.2,2.6v4.2h1.6v-4.2c0-2.2-1.7-4.1-3.9-4.4h-1.2v-.2Z"/>
  <path class="st1" d="M77.9,40.8c-.3.3-.6.5-1,.6h0c-.3,0-.6,0-.8,0-.6,0-1.2-.2-1.7-.6-.3-.3-.6-.6-.8-1.1h0c0-.3-.2-.7-.2-1s0-.7.2-1h0c.2-.4.5-.8.8-1.1h0c.5-.4,1-.6,1.7-.6s1.2.2,1.7.6c.3.3.6.6.8,1.1h0c0,0-4.3,0-4.3,0,0,.3,0,.6,0,.9s0,.6,0,.9h6.1v-1.5c-.3-2.2-2.2-3.9-4.4-3.9s-4.1,1.7-4.4,3.9v1.2c.3,2.2,2.2,3.9,4.4,3.9s2.3-.5,3.1-1.3l.2-.2h0c0,0-1.1-1.2-1.1-1.2h0l-.2.2h0Z"/>
  <path class="st1" d="M117.2,40.8c-.3.3-.6.5-1,.6h0c-.3,0-.6,0-.8,0-.6,0-1.2-.2-1.7-.6-.3-.3-.6-.6-.8-1.1h0c0-.3-.2-.7-.2-1s0-.7.2-1h0c.2-.4.5-.8.8-1.1h0c.5-.4,1-.6,1.7-.6s1.2.2,1.7.6c.3.3.6.6.8,1.1h0c0,0-4.3,0-4.3,0,0,.3,0,.6,0,.9s0,.6,0,.9h6.1v-1.5c-.3-2.2-2.2-3.9-4.4-3.9s-4.1,1.7-4.4,3.9v1.2c.3,2.2,2.2,3.9,4.4,3.9s2.3-.5,3.1-1.3l.2-.2h0c0,0-1.1-1.2-1.1-1.2h0l-.2.2h0Z"/>
  <g>
    <path class="st3" d="M41.4,34.8L32,3.7h-15.1L6.4,38.7h11.2l6.9-23,4.9,16.3c4.1.4,8.1,1.4,12,2.8"/>
    <path class="st3" d="M24.5,34.7c8.2,0,16,2.2,22.6,6.1l-5.4,9.4c-5.1-2.9-10.9-4.6-17.2-4.6s-12.2,1.7-17.2,4.6l-5.4-9.4c6.7-3.9,14.4-6.1,22.6-6.1"/>
  </g>
  <path class="st2" d="M103.5,41v-7.1c0,0,0-.2.2-.2h2.2c0,0,.1,0,.1-.1v-2.3c0,0,0-.1-.1-.1h-2.2c0,0-.2,0-.2-.2v-3.3c0,0,0-.1-.1-.1h-2.3c0,0-.1,0-.1.1v14c0,1.1.9,2,2,2h2.9c0,0,.1,0,.1-.1v-2.3c0,0,0-.1-.1-.1h-2.2c0,0-.2,0-.2-.2h0Z"/>
  <path class="st2" d="M53.6,37.8c0-.2,0-.4,0-.6s0-.4,0-.6c.3-1.9,2-3.3,3.9-3.3s2,.4,2.8,1.1l.3.3c0,0,.1,0,.2,0l1.6-1.6c0,0,0-.1,0-.2l-.3-.3c-1.2-1.2-2.9-1.9-4.6-1.9-3.3,0-6,2.4-6.4,5.7,0,.3,0,.5,0,.8s0,.5,0,.8c.4,3.3,3.2,5.7,6.4,5.7s3.4-.7,4.6-1.9l.3-.3c0,0,0-.1,0-.2l-1.6-1.6c0,0-.1,0-.2,0l-.3.3c-.7.7-1.7,1.1-2.8,1.1-1.9,0-3.6-1.4-3.9-3.3h0Z"/>
  <path class="st2" d="M118.3,39.7l-3.8-8.5s0,0-.1,0h-2.5s0,0-.1,0c0,0,0,0,0,.1l5.5,12.3s0,0,.1,0h2.2c0,0,0,0,.1,0l5.6-12.3s0,0,0-.1c0,0,0,0-.1,0h-2.6c0,0,0,0-.1,0l-3.9,8.6c0,0,0,0-.1,0,0,0-.1,0-.1,0h0Z"/>
  <path class="st2" d="M63.9,43.6c0,0,0,.1.1.1h2.3c0,0,.1,0,.1-.1v-5.9s0,0,0-.1c0-.2,0-.4,0-.6.3-1.9,2-3.3,3.9-3.3h.4c0,0,.1,0,.1-.1v-2.3c0,0,0-.1-.1-.1h-.4c-3.3,0-6,2.4-6.4,5.7,0,.3,0,.5,0,.8s0,0,0,.1v5.9h0Z"/>
  <path class="st2" d="M107.7,31.1c0,0-.1,0-.1.1v12.3c0,0,0,.1.1.1h2.3c0,0,.1,0,.1-.1v-12.3c0,0,0-.1-.1-.1h-2.3ZM108.9,26.8c-.8,0-1.5.7-1.5,1.5s.7,1.5,1.5,1.5,1.5-.7,1.5-1.5-.7-1.5-1.5-1.5h0Z"/>
  <path class="st2" d="M92,30.7c-3.3.4-5.7,3.2-5.7,6.4s2.4,6,5.7,6.4c.3,0,.5,0,.8,0s.5,0,.8,0c.6,0,1.2-.2,1.7-.4,0,0,0,0,0-.1v-2.7c0,0,0,0,0-.1,0,0,0,0-.1,0-.5.4-1.1.6-1.7.7-.2,0-.4,0-.6,0s-.4,0-.6,0h0c-1.9-.3-3.2-2-3.2-3.9s1.4-3.6,3.3-3.9c.2,0,.4,0,.6,0s.4,0,.6,0h0c1.9.3,3.2,2,3.2,3.9v6.2c0,0,0,.1.1.1h2.3c0,0,.1,0,.1-.1v-6.2c0-3.3-2.4-6-5.7-6.4-.3,0-.5,0-.8,0s-.5,0-.8,0h0Z"/>
  <path class="st2" d="M134.3,40c-.4.4-.9.7-1.5.9,0,0,0,0,0,0-.4.1-.8.2-1.2.2-.9,0-1.8-.3-2.4-.9-.5-.4-.9-.9-1.2-1.6,0,0,0,0,0,0-.2-.5-.3-1-.3-1.5s.1-1,.3-1.5c0,0,0,0,0,0,.3-.6.7-1.2,1.2-1.6,0,0,0,0,0,0,.7-.5,1.5-.9,2.5-.9s1.8.3,2.5.9c.5.4.9.9,1.2,1.6,0,0,0,0,0,0,0,0,0,.1,0,.2h-6.3c-.1.4-.2.8-.2,1.3s0,.9.2,1.3h8.8c0,0,.1,0,.1-.1v-.4c0-.3,0-.5,0-.8s0-.5,0-.8c-.4-3.3-3.2-5.7-6.4-5.7s-6,2.4-6.4,5.7c0,.3,0,.5,0,.8s0,.5,0,.8c.4,3.3,3.2,5.7,6.4,5.7s3.4-.7,4.6-1.9l.3-.3c0,0,0-.1,0-.2l-1.6-1.6c0,0-.1,0-.2,0l-.3.3h0Z"/>
  <path class="st2" d="M81,40c-.4.4-.9.7-1.5.9,0,0,0,0,0,0-.4.1-.8.2-1.2.2-.9,0-1.8-.3-2.4-.9-.5-.4-.9-.9-1.2-1.6,0,0,0,0,0,0-.2-.5-.3-1-.3-1.5s.1-1,.3-1.5c0,0,0,0,0,0,.3-.6.7-1.2,1.2-1.6,0,0,0,0,0,0,.7-.5,1.5-.9,2.5-.9s1.8.3,2.5.9c.5.4.9.9,1.2,1.6,0,0,0,0,0,0,0,0,0,.1,0,.2h-6.3c-.1.4-.2.8-.2,1.3s0,.9.2,1.3h8.8c0,0,.1,0,.1-.1v-.4c0-.3,0-.5,0-.8s0-.5,0-.8c-.4-3.3-3.2-5.7-6.4-5.7s-6,2.4-6.4,5.7c0,.3,0,.5,0,.8s0,.5,0,.8c.4,3.3,3.2,5.7,6.4,5.7s3.4-.7,4.6-1.9l.3-.3c0,0,0-.1,0-.2l-1.6-1.6c0,0-.1,0-.2,0l-.3.3h0Z"/>
  <g class="st4">
    <path class="st1" d="M106,21.7v-9.3c0-.1,0-.2.2-.2h2.9c0,0,.2,0,.2-.2v-3c0,0,0-.2-.2-.2h-2.9c-.1,0-.2,0-.2-.2V3.9c0,0,0-.2-.2-.2h-3c0,0-.2,0-.2.2v18.6c0,1.5,1.2,2.6,2.6,2.6h3.8c0,0,.2,0,.2-.2v-3c0,0,0-.2-.2-.2h-2.9c-.1,0-.2,0-.2-.2h0Z"/>
    <path class="st1" d="M159.4,21.7v-9.3c0-.1,0-.2.2-.2h2.9c0,0,.2,0,.2-.2v-3c0,0,0-.2-.2-.2h-2.9c-.1,0-.2,0-.2-.2v-4.6c0,0,0-.2-.2-.2h-3c0,0-.2,0-.2.2v18.6c0,1.5,1.2,2.6,2.6,2.6h3.8c0,0,.2,0,.2-.2v-3c0,0,0-.2-.2-.2h-2.9c-.1,0-.2,0-.2-.2h0Z"/>
    <path class="st1" d="M142.8,17.7c0-.3,0-.6,0-.8s0-.6,0-.8c.4-2.5,2.6-4.3,5.1-4.3s2.7.5,3.6,1.5l.4.4c0,0,.2,0,.2,0l2.1-2.1c0,0,0-.2,0-.2l-.4-.4c-1.6-1.6-3.7-2.5-6-2.5-4.3,0-7.9,3.2-8.4,7.4,0,.3,0,.7,0,1.1s0,.7,0,1.1c.5,4.3,4.2,7.4,8.4,7.4s4.4-.9,6-2.5l.4-.4c0,0,0-.2,0-.2l-2.1-2.1c0,0-.2,0-.2,0l-.4.4c-1,1-2.3,1.5-3.6,1.5-2.5,0-4.6-1.8-5.1-4.3h0Z"/>
    <path class="st1" d="M91.3,13.3c0-.1,0-.3,0-.4,0-.4.4-.7.9-.7h8.5c0,0,.2,0,.2-.2v-3c0,0,0-.2-.2-.2h-8.5c-1.6,0-3,1-3.8,2.3-.2.3-.3.7-.4,1,0,.4-.1.9-.1,1.3,0,1,.5,1.8,1.2,2.6.4.4.8.7,1.3.9l7.3,3.3c.3.1.4.3.5.6,0,.1,0,.3,0,.4,0,.4-.4.7-.9.7h-8.5c0,0-.2,0-.2.2v3c0,0,0,.2.2.2h8.5c1.6,0,3-1,3.8-2.3.2-.3.3-.7.4-1,0-.4.1-.9.1-1.3,0-1-.5-1.8-1.2-2.6-.4-.4-.8-.7-1.3-.9l-7.3-3.3c-.3-.1-.4-.3-.5-.6h0Z"/>
    <path class="st1" d="M111,25.1c0,0,0,.2.2.2h3c0,0,.2,0,.2-.2v-7.7c0,0,0-.1,0-.2,0-.3,0-.6,0-.8.4-2.5,2.6-4.3,5.1-4.3h.6c0,0,.2,0,.2-.2v-3c0,0,0-.2-.2-.2h-.6c-4.3,0-7.9,3.2-8.4,7.4,0,.3,0,.7,0,1.1s0,.1,0,.2v7.7h0Z"/>
    <path class="st1" d="M77.1,8.4c-.8,0-1.5.3-2.2.6,0,0-.1,0-.1.2v3.5c0,0,0,.1,0,.2,0,0,.1,0,.2,0,.7-.5,1.4-.8,2.3-1,.3,0,.6,0,.8,0s.6,0,.8,0h0c2.4.4,4.2,2.6,4.2,5.1s-1.8,4.6-4.3,5.1c-.3,0-.6,0-.8,0s-.6,0-.8,0h0c-2.4-.4-4.2-2.6-4.2-5.1V3.9c0,0,0-.2-.2-.2h-3c0,0-.2,0-.2.2v12.9c0,4.3,3.2,7.9,7.4,8.4.3,0,.7,0,1.1,0s.7,0,1.1,0c4.3-.5,7.4-4.2,7.4-8.4s-3.2-7.9-7.4-8.4c-.3,0-.7,0-1.1,0s-.7,0-1.1,0h0Z"/>
    <path class="st1" d="M58.4,8.4c-4.3.5-7.4,4.2-7.4,8.4s3.2,7.9,7.4,8.4c.3,0,.7,0,1.1,0s.7,0,1.1,0c.8,0,1.5-.3,2.2-.6,0,0,.1,0,.1-.2v-3.5c0,0,0-.1,0-.2,0,0-.1,0-.2,0-.7.5-1.4.8-2.3,1-.3,0-.6,0-.8,0s-.6,0-.8,0h0c-2.4-.4-4.2-2.6-4.2-5.1s1.8-4.6,4.3-5.1c.3,0,.6,0,.8,0s.6,0,.8,0h0c2.4.4,4.2,2.6,4.2,5.1v8.1c0,0,0,.2.2.2h3c0,0,.2,0,.2-.2v-8.1c0-4.3-3.2-7.9-7.4-8.4-.3,0-.7,0-1.1,0s-.7,0-1.1,0h0Z"/>
    <path class="st1" d="M128,8.4c-4.3.5-7.4,4.2-7.4,8.4s3.2,7.9,7.4,8.4c.3,0,.7,0,1.1,0s.7,0,1.1,0c.8,0,1.5-.3,2.2-.6,0,0,.1,0,.1-.2v-3.5c0,0,0-.1,0-.2,0,0-.1,0-.2,0-.7.5-1.4.8-2.3,1-.3,0-.6,0-.8,0s-.6,0-.8,0h0c-2.4-.4-4.2-2.6-4.2-5.1s1.8-4.6,4.3-5.1c.3,0,.6,0,.8,0s.6,0,.8,0h0c2.4.4,4.2,2.6,4.2,5.1v8.1c0,0,0,.2.2.2h3c0,0,.2,0,.2-.2v-8.1c0-4.3-3.2-7.9-7.4-8.4-.3,0-.7,0-1.1,0s-.7,0-1.1,0h0Z"/>
  </g>
  <g class="st4">
    <path class="st3" d="M38.6,31.2L30.3,3.8h-13.3l-9.3,30.8h9.8l6.1-20.2,4.3,14.4c3.6.4,7.2,1.2,10.6,2.5"/>
    <path class="st3" d="M23.7,31.1c7.3,0,14.1,1.9,19.9,5.3l-4.8,8.2c-4.5-2.6-9.6-4.1-15.2-4.1s-10.7,1.5-15.2,4.1l-4.8-8.2c5.9-3.4,12.7-5.3,19.9-5.3"/>
  </g>
  <g class="st4">
    <path class="st0" d="M52.8,63.5l.9-6.3h2c.4,0,.8,0,1.1.2.3.2.5.4.7.7.1.3.2.7.1,1.1,0,.4-.2.8-.4,1.1-.2.3-.5.5-.8.7-.3.2-.7.2-1.1.2h-1.3l-.3,2.3h-.8ZM54.1,60.5h1.3c.3,0,.5,0,.7-.2.2-.1.4-.3.5-.5.1-.2.2-.4.3-.7,0-.4,0-.7-.3-1-.2-.2-.6-.3-1-.3h-1.3l-.4,2.6Z"/>
    <path class="st0" d="M59.6,63.6c-.4,0-.7,0-1-.3-.3-.2-.5-.4-.6-.8-.1-.3-.1-.8,0-1.3,0-.5.2-.9.4-1.2.2-.4.5-.6.8-.8.3-.2.7-.3,1.1-.3s.7,0,1,.3.5.4.6.8.1.8,0,1.3c0,.5-.2.9-.4,1.2-.2.3-.5.6-.8.8-.3.2-.7.3-1.1.3ZM59.7,62.9c.3,0,.5,0,.7-.2.2-.1.4-.3.5-.6s.2-.6.3-.9c0-.3,0-.6,0-.9s-.1-.5-.3-.6-.4-.2-.6-.2-.5,0-.7.2c-.2.1-.4.3-.5.6s-.2.6-.3.9c0,.3,0,.6,0,.9,0,.3.1.5.3.6.2.2.4.2.7.2Z"/>
    <path class="st0" d="M63.5,63.5l-.7-4.5h.7l.5,3.5h0l1.5-3.5h.6l.5,3.5h0l1.4-3.5h.7l-1.9,4.5h-.8l-.5-3.3-1.4,3.3h-.8Z"/>
    <path class="st0" d="M70.8,63.6c-.4,0-.7,0-1-.3-.3-.2-.5-.4-.6-.8s-.1-.8,0-1.2c0-.5.2-.9.4-1.2.2-.4.5-.6.8-.8s.7-.3,1.1-.3.7,0,1,.3c.3.2.4.4.5.8s.1.7,0,1.2v.3h-3.1c0,.3,0,.5,0,.8,0,.2.2.4.3.6.2.1.4.2.7.2s.5,0,.7-.2.4-.3.5-.6h.7c0,.3-.2.6-.5.8-.2.2-.4.4-.7.5-.3.1-.5.2-.8.2ZM69.9,60.9h2.3c0-.3,0-.5,0-.7,0-.2-.2-.4-.3-.5s-.4-.2-.6-.2-.5,0-.7.2-.3.3-.5.5c-.1.2-.2.4-.2.7Z"/>
    <path class="st0" d="M73.7,63.5l.6-4.5h.7v.9c0-.2.1-.4.3-.5.1-.1.3-.2.5-.3.2,0,.4-.1.5-.1s.1,0,.2,0,.1,0,.1,0v.8c-.1,0-.2,0-.3,0,0,0-.1,0-.2,0-.2,0-.4,0-.6,0-.2,0-.4.2-.5.3-.1.2-.2.4-.3.6l-.4,2.8h-.8Z"/>
    <path class="st0" d="M78.7,63.6c-.4,0-.7,0-1-.3-.3-.2-.5-.4-.6-.8s-.1-.8,0-1.2c0-.5.2-.9.4-1.2.2-.4.5-.6.8-.8s.7-.3,1.1-.3.7,0,1,.3c.3.2.4.4.5.8s.1.7,0,1.2v.3h-3.1c0,.3,0,.5,0,.8,0,.2.2.4.3.6.2.1.4.2.7.2s.5,0,.7-.2.4-.3.5-.6h.7c0,.3-.2.6-.5.8-.2.2-.4.4-.7.5-.3.1-.5.2-.8.2ZM77.9,60.9h2.3c0-.3,0-.5,0-.7,0-.2-.2-.4-.3-.5s-.4-.2-.6-.2-.5,0-.7.2-.3.3-.5.5c-.1.2-.2.4-.2.7Z"/>
    <path class="st0" d="M83.2,63.6c-.6,0-1-.2-1.2-.6-.3-.4-.4-1-.3-1.8,0-.7.3-1.3.7-1.7.4-.4.8-.6,1.4-.6s.4,0,.5,0,.3.1.4.2c.1,0,.2.2.3.3,0,0,.1.2.1.2l.4-2.7h.8l-.9,6.5h-.6v-.9c0,0,0,.2-.1.3,0,.1-.2.2-.3.3-.1.1-.3.2-.5.3-.2,0-.4.1-.6.1ZM83.5,63c.4,0,.8-.1,1-.4s.4-.7.5-1.4c0-.4,0-.7,0-.9,0-.2-.1-.4-.3-.6-.2-.1-.4-.2-.6-.2s-.7.1-.9.4c-.3.3-.4.7-.5,1.3,0,.6,0,1,.1,1.3s.4.5.8.5Z"/>
    <path class="st0" d="M91,63.6c-.2,0-.5,0-.6-.1-.2,0-.3-.2-.4-.3s-.2-.2-.2-.3c0-.1,0-.2,0-.3l-.2.9h-.6l.9-6.5h.8l-.4,2.7c0,0,.1-.2.2-.2,0,0,.2-.2.3-.3s.3-.2.4-.2.3,0,.6,0c.5,0,.9.2,1.2.6.3.4.3,1,.2,1.7,0,.7-.3,1.3-.7,1.7s-.8.6-1.4.6ZM90.9,63c.3,0,.6-.1.9-.4.3-.3.4-.7.5-1.4,0-.5,0-.9-.1-1.2-.2-.3-.4-.4-.8-.4s-.7.1-1,.4c-.2.3-.4.7-.4,1.2,0,.6,0,1.1.1,1.4.1.3.4.4.9.4Z"/>
    <path class="st0" d="M94,64.9c-.2,0-.5,0-.6-.1v-.5c0,0,.5,0,.5,0,.2,0,.4,0,.5,0,.1,0,.2-.1.3-.2,0,0,.1-.2.2-.2l.2-.4-1-4.4h.8l.7,3.5,1.7-3.5h.8l-2.5,4.8c-.2.3-.3.5-.5.7-.2.2-.3.3-.5.3-.2,0-.4,0-.6,0Z"/>
    <path class="st5" d="M100.6,63.5v-6.3h1.7v6.3h-1.7Z"/>
    <path class="st5" d="M106.3,63.6c-.6,0-1.1-.1-1.6-.4-.5-.3-.8-.7-1.1-1.2-.2-.5-.4-1.1-.4-1.7s.1-1.2.4-1.7c.2-.5.6-.8,1-1.1s1-.4,1.6-.4.9,0,1.3.3.7.5,1,.8c.2.3.4.7.4,1.2h-1.8c0-.2,0-.4-.2-.5s-.2-.3-.3-.3c-.1,0-.3-.1-.5-.1s-.4,0-.6.2c-.2.1-.3.3-.4.6,0,.3-.1.6-.1,1.1,0,.7.1,1.2.3,1.5.2.3.5.4.8.4s.4,0,.5-.1c.1,0,.3-.2.3-.4s.1-.3.2-.5h1.8c0,.3-.1.6-.2.9-.1.3-.3.6-.5.8-.2.2-.5.4-.8.5-.3.1-.8.2-1.3.2Z"/>
    <path class="st5" d="M112.8,63.6c-.6,0-1.2-.1-1.6-.4-.5-.3-.8-.6-1.1-1.1-.2-.5-.4-1.1-.4-1.7s.1-1.2.4-1.7c.3-.5.6-.9,1.1-1.1.5-.3,1-.4,1.6-.4s1.1.1,1.6.4.8.6,1.1,1.1c.3.5.4,1.1.4,1.7s-.1,1.2-.4,1.7c-.2.5-.6.9-1.1,1.1-.5.3-1,.4-1.6.4ZM112.8,62.2c.2,0,.4,0,.6-.2.2-.1.3-.3.4-.6.1-.3.2-.6.2-1.1s0-.8-.2-1.1c-.1-.3-.2-.5-.4-.6-.2-.1-.4-.2-.6-.2s-.4,0-.6.2-.3.3-.4.6-.2.7-.2,1.1,0,.8.2,1.1.2.5.4.6.4.2.6.2Z"/>
    <path class="st5" d="M116.8,63.5v-6.3h1.7l2.5,3.5v-3.5h1.7v6.3h-1.5l-2.6-3.8v3.8h-1.7Z"/>
    <path class="st0" d="M126,63.5v-6.3h1.8l1.4,4.5,1.5-4.5h1.8v6.3h-1.3v-4.8l-1.5,4.8h-1l-1.5-4.8v4.8h-1.3Z"/>
    <path class="st0" d="M135.8,63.6c-.4,0-.8,0-1.2-.3-.3-.2-.6-.5-.8-.8s-.3-.7-.3-1.2,0-.9.3-1.2c.2-.4.4-.6.7-.9.3-.2.7-.3,1.2-.3s.8,0,1.2.3.5.5.7.8.2.7.2,1.2v.3h-3c0,.2,0,.4.1.6,0,.2.2.3.3.4.1,0,.3.1.5.1s.4,0,.6-.1.3-.2.3-.5h1.1c0,.3-.2.6-.4.8-.2.2-.5.4-.7.5-.3.1-.6.2-.9.2ZM134.8,60.8h1.8c0-.2,0-.3-.1-.5s-.2-.3-.3-.4c-.1,0-.3-.1-.5-.1s-.4,0-.5.1-.2.2-.3.4c0,.2-.1.3-.1.5Z"/>
    <path class="st0" d="M140.6,63.5c-.4,0-.7,0-.9-.2s-.4-.2-.4-.4c0-.2-.1-.4-.1-.6v-2.5h-.7v-.9h.8l.3-1.4h.9v1.4h1v.9h-1v2.4c0,.1,0,.2,0,.2,0,0,0,0,.1.1,0,0,.1,0,.2,0h.6v.8c0,0-.2,0-.3,0-.1,0-.3,0-.5,0Z"/>
    <path class="st0" d="M142.3,63.5v-6.5h1.3v2.6c0-.1.2-.2.3-.3.1-.1.2-.2.4-.3.2,0,.4-.1.6-.1s.5,0,.8.2c.2.1.4.3.6.5.1.2.2.5.2.8v3.1h-1.3v-2.9c0-.2,0-.4-.2-.5-.1-.1-.3-.2-.5-.2s-.3,0-.4,0c-.1,0-.2.1-.3.2s-.1.2-.1.4v2.9h-1.3Z"/>
    <path class="st0" d="M149.4,63.6c-.4,0-.8,0-1.2-.3s-.6-.5-.8-.8c-.2-.3-.3-.8-.3-1.2s0-.9.3-1.2c.2-.4.4-.6.8-.8s.7-.3,1.2-.3.8,0,1.2.3c.3.2.6.5.8.8.2.4.3.8.3,1.3s0,.9-.3,1.2-.4.6-.7.8-.7.3-1.2.3ZM149.4,62.6c.2,0,.4,0,.5-.2.1-.1.2-.3.3-.5,0-.2,0-.4,0-.7s0-.5,0-.7c0-.2-.2-.4-.3-.5-.1-.1-.3-.2-.6-.2s-.4,0-.5.2c-.1.1-.2.3-.3.5,0,.2,0,.4,0,.7s0,.5,0,.7.2.4.3.5c.1.1.3.2.6.2Z"/>
    <path class="st0" d="M154.1,63.6c-.6,0-1.1-.2-1.4-.6-.3-.4-.5-1-.5-1.7s0-.9.2-1.2.3-.6.6-.8c.3-.2.6-.3,1-.3s.3,0,.5,0,.3,0,.4.2.2.1.3.2.2.2.2.3v-2.6h1.3v6.5h-.9v-.9c-.2.1-.2.2-.3.4,0,.1-.2.2-.3.3-.1,0-.3.2-.4.2s-.4,0-.6,0ZM154.4,62.7c.3,0,.6-.1.7-.3.2-.2.2-.6.2-1.1,0-.3,0-.6-.1-.8,0-.2-.2-.4-.3-.5-.1-.1-.3-.2-.5-.2s-.5.1-.7.3c-.2.2-.3.6-.3,1.1s0,.9.3,1.1.4.4.7.4Z"/>
    <path class="st0" d="M158,59.3v-1.9h-.7v-.4h1.8v.4h-.7v1.9h-.5Z"/>
    <path class="st0" d="M159.4,59.3v-2.3h.7l.5,1.6.5-1.6h.7v2.3h-.5v-1.8l-.6,1.8h-.4l-.6-1.8v1.8h-.5Z"/>
  </g>
</svg>