<?xml version="1.0" encoding="UTF-8"?>
<svg id="Layer_1" xmlns="http://www.w3.org/2000/svg" version="1.1" viewBox="0 0 164 75">
  <!-- Generator: Adobe Illustrator 29.0.0, SVG Export Plug-In . SVG Version: 2.1.0 Build 186)  -->
  <defs>
    <style>
      .st0, .st1 {
        fill: #fff;
      }

      .st0, .st2 {
        fill-rule: evenodd;
      }

      .st3 {
        isolation: isolate;
      }

      .st2, .st4 {
        fill: #ee4137;
      }
    </style>
  </defs>
  <path class="st0" d="M101.3,41v-7.1s0-.2.2-.2h2.2v-2.3h0c0-.1-2.2-.1-2.2-.1,0,0-.2,0-.2-.2v-3.3h0c0-.1-2.3-.1-2.3-.1h0v14.1c0,1.1.9,2,2,2h2.9v-2.3h-2.2s-.2,0-.2-.2h0s-.2-.3-.2-.3Z"/>
  <path class="st0" d="M51.4,37.8v-1.2c.3-1.9,2-3.3,3.9-3.3s2,.4,2.8,1.1l.3.3h.2l1.6-1.6v-.2l-.3-.3c-1.2-1.2-2.9-1.9-4.6-1.9-3.3,0-6,2.4-6.4,5.7v1.6c.4,3.3,3.2,5.7,6.4,5.7s3.4-.7,4.6-1.9l.3-.3v-.2l-1.6-1.6h-.2l-.3.3c-.7.7-1.7,1.1-2.8,1.1-1.9,0-3.6-1.4-3.9-3.3h0Z"/>
  <path class="st0" d="M116.1,39.7l-3.8-8.5h-2.7c0,.1,5.5,12.4,5.5,12.4h2.4l5.6-12.3h0c0-.1-2.7-.1-2.7-.1l-3.9,8.6h-.4Z"/>
  <path class="st0" d="M61.7,43.6h2.3v-5.9h0v-.7c.3-1.9,2-3.3,3.9-3.3h.4v-2.3h0c0-.1-.4-.1-.4-.1-3.3,0-6,2.4-6.4,5.7v.8c0,.3,0,0,0,0v5.9h.2Z"/>
  <path class="st0" d="M105.5,31.1h0v12.4h2.3v-12.3h0c0-.1-2.3-.1-2.3-.1ZM106.7,26.8c-.8,0-1.5.7-1.5,1.5s.7,1.5,1.5,1.5,1.5-.7,1.5-1.5-.7-1.5-1.5-1.5h0Z"/>
  <path class="st0" d="M89.8,30.7c-3.3.4-5.7,3.2-5.7,6.4s2.4,6,5.7,6.4h1.6c.6,0,1.2-.2,1.7-.4h0v-2.8h0c-.5.4-1.1.6-1.7.7h-1.2c-1.9-.3-3.2-2-3.2-3.9s1.4-3.6,3.3-3.9h1.2c1.9.3,3.2,2,3.2,3.9v6.2h2.3v-6.2c0-3.3-2.4-6-5.7-6.4h-1.6,0Z"/>
  <path class="st0" d="M132,40c-.4.4-.9.7-1.5.9h0c-.4,0-.8.2-1.2.2-.9,0-1.8-.3-2.4-.9-.5-.4-.9-.9-1.2-1.6h0c-.2-.5-.3-1-.3-1.5s0-1,.3-1.5h0c.3-.6.7-1.2,1.2-1.6h0c.7-.5,1.5-.9,2.5-.9s1.8.3,2.5.9c.5.4.9.9,1.2,1.6h0v.2h-6.3c0,.4-.2.8-.2,1.3s0,.9.2,1.3h8.9v-2c-.4-3.3-3.2-5.7-6.4-5.7s-6,2.4-6.4,5.7v1.6c.4,3.3,3.2,5.7,6.4,5.7s3.4-.7,4.6-1.9l.3-.3v-.2l-1.6-1.6h-.2l-.3.3h-.1,0Z"/>
  <path class="st0" d="M78.8,40c-.4.4-.9.7-1.5.9h0c-.4,0-.8.2-1.2.2-.9,0-1.8-.3-2.4-.9-.5-.4-.9-.9-1.2-1.6h0c-.2-.5-.3-1-.3-1.5s0-1,.3-1.5h0c.3-.6.7-1.2,1.2-1.6h0c.7-.5,1.5-.9,2.5-.9s1.8.3,2.5.9c.5.4.9.9,1.2,1.6h0v.2h-6.3c0,.4-.2.8-.2,1.3s0,.9.2,1.3h8.8v-2c-.4-3.3-3.2-5.7-6.4-5.7s-6,2.4-6.4,5.7v1.6c.4,3.3,3.2,5.7,6.4,5.7s3.4-.7,4.6-1.9l.3-.3v-.2l-1.6-1.6h-.2l-.3.3h0Z"/>
  <g>
    <path class="st0" d="M103.8,21.7v-9.3c0-.1,0-.2.2-.2h2.9s.2,0,.2-.2v-3s0-.2-.2-.2h-2.9s-.2,0-.2-.2V3.9s0-.2-.2-.2h-3s-.2,0-.2.2v18.6c0,1.5,1.2,2.6,2.6,2.6h3.8s.2,0,.2-.2v-3s0-.2-.2-.2h-2.9s-.2,0-.2-.2h0v.2h0Z"/>
    <path class="st0" d="M157.2,21.7v-9.3c0-.1,0-.2.2-.2h2.9s.2,0,.2-.2v-3s0-.2-.2-.2h-2.9c-.1,0-.2,0-.2-.2v-4.6s0-.2-.2-.2h-3s-.2,0-.2.2v18.6c0,1.5,1.2,2.6,2.6,2.6h3.8s.2,0,.2-.2v-3s0-.2-.2-.2h-2.9c-.1,0-.2,0-.2-.2h0Z"/>
    <path class="st0" d="M140.6,17.7v-1.6c.4-2.5,2.6-4.3,5.1-4.3s2.7.5,3.6,1.5l.4.4h.2l2.1-2.1v-.2l-.4-.4c-1.6-1.6-3.7-2.5-6-2.5-4.3,0-7.9,3.2-8.4,7.4v2.2c.5,4.3,4.2,7.4,8.4,7.4s4.4-.9,6-2.5l.4-.4v-.2l-2.1-2.1h-.2l-.4.4c-1,1-2.3,1.5-3.6,1.5-2.5,0-4.6-1.8-5.1-4.3h0v-.2Z"/>
    <path class="st0" d="M89.1,13.3v-.4c0-.4.4-.7.9-.7h8.5s.2,0,.2-.2v-3s0-.2-.2-.2h-8.5c-1.6,0-3,1-3.8,2.3-.2.3-.3.7-.4,1v1.3c0,1,.5,1.8,1.2,2.6.4.4.8.7,1.3.9l7.3,3.3c.3.1.4.3.5.6v.4c0,.4-.4.7-.9.7h-8.5s-.2,0-.2.2v3s0,.2.2.2h8.5c1.6,0,3-1,3.8-2.3.2-.3.3-.7.4-1v-1.3c0-1-.5-1.8-1.2-2.6-.4-.4-.8-.7-1.3-.9l-7.3-3.3c-.3-.1-.4-.3-.5-.6h0Z"/>
    <path class="st0" d="M108.8,25.1s0,.2.2.2h3s.2,0,.2-.2v-8.7c.4-2.5,2.6-4.3,5.1-4.3h.6s.2,0,.2-.2v-3s0-.2-.2-.2h-.6c-4.3,0-7.9,3.2-8.4,7.4v1.1c0,.4,0,.1,0,.2v7.7h0Z"/>
    <path class="st0" d="M74.9,8.4c-.8,0-1.5.3-2.2.6v3.9h.2c.7-.5,1.4-.8,2.3-1h1.6c2.4.4,4.2,2.6,4.2,5.1s-1.8,4.6-4.3,5.1h-1.6c-2.4-.4-4.2-2.6-4.2-5.1V3.9s0-.2-.2-.2h-3s-.2,0-.2.2v12.9c0,4.3,3.2,7.9,7.4,8.4h2.2c4.3-.5,7.4-4.2,7.4-8.4s-3.2-7.9-7.4-8.4h-2.2Z"/>
    <path class="st0" d="M56.2,8.4c-4.3.5-7.4,4.2-7.4,8.4s3.2,7.9,7.4,8.4h2.2c.8,0,1.5-.3,2.2-.6v-3.9h-.2c-.7.5-1.4.8-2.3,1h-1.6c-2.4-.4-4.2-2.6-4.2-5.1s1.8-4.6,4.3-5.1h1.6c2.4.4,4.2,2.6,4.2,5.1v8.1s0,.2.2.2h3s.2,0,.2-.2v-8.1c0-4.3-3.2-7.9-7.4-8.4h-2.2v.2Z"/>
    <path class="st0" d="M125.8,8.4c-4.3.5-7.4,4.2-7.4,8.4s3.2,7.9,7.4,8.4h2.2c.8,0,1.5-.3,2.2-.6,0,0,.1,0,.1-.2v-3.7h-.2c-.7.5-1.4.8-2.3,1h-1.6c-2.4-.4-4.2-2.6-4.2-5.1s1.8-4.6,4.3-5.1h1.6c2.4.4,4.2,2.6,4.2,5.1v8.1s0,.2.2.2h3s.2,0,.2-.2v-8.1c0-4.3-3.2-7.9-7.4-8.4h-2.2v.2h-.1Z"/>
  </g>
  <g>
    <path class="st2" d="M36.4,31.2L28.1,3.8h-13.3l-9.3,30.8h9.8l6.1-20.2,4.3,14.4c3.6.4,7.2,1.2,10.6,2.5"/>
    <path class="st2" d="M21.5,31.1c7.3,0,14.1,1.9,19.9,5.3l-4.8,8.2c-4.5-2.6-9.6-4.1-15.2-4.1s-10.7,1.5-15.2,4.1l-4.8-8.2c5.9-3.4,12.7-5.3,19.9-5.3"/>
  </g>
  <g class="st3">
    <g class="st3">
      <g class="st3">
        <g class="st3">
          <path class="st1" d="M2.4,70.9l1.1-7.9h2.4c.5,0,1,0,1.3.3s.7.5.8.8c.2.4.2.8.2,1.3,0,.5-.3,1-.5,1.3-.3.4-.6.6-1,.8s-.9.3-1.4.3h-1.8l-.4,3h-.7ZM3.6,67.3h1.8c.4,0,.7,0,1-.2.3-.1.6-.4.8-.6.2-.3.3-.6.4-1,0-.6,0-1-.4-1.3-.3-.3-.8-.4-1.4-.4h-1.7l-.5,3.6Z"/>
          <path class="st1" d="M10.7,71c-.5,0-.9-.1-1.2-.3-.3-.2-.6-.5-.7-1-.1-.4-.2-1,0-1.6,0-.6.2-1.1.5-1.6s.5-.8.9-1c.4-.2.8-.4,1.3-.4s.9.1,1.2.3c.3.2.5.5.7,1,.1.4.2,1,0,1.6,0,.6-.2,1.1-.5,1.5-.2.4-.5.8-.9,1-.4.2-.8.4-1.3.4ZM10.8,70.4c.3,0,.6,0,.9-.3.3-.2.5-.4.7-.8.2-.3.3-.8.4-1.3,0-.5,0-.9,0-1.2s-.2-.6-.4-.8c-.2-.2-.5-.3-.9-.3s-.7,0-.9.3c-.3.2-.5.4-.7.8s-.3.8-.4,1.3c0,.5,0,.9,0,1.2,0,.4.2.6.4.8.2.2.5.3.9.3Z"/>
          <path class="st1" d="M15.4,70.9l-.8-5.6h.6l.6,4.8h.1l2-4.8h.5l.7,4.8h0l1.9-4.8h.6l-2.3,5.6h-.8l-.7-4.6-1.9,4.6h-.8Z"/>
          <path class="st1" d="M24.4,71c-.5,0-.9-.1-1.2-.3-.3-.2-.6-.6-.7-1-.1-.4-.2-.9,0-1.6,0-.6.2-1.1.5-1.6.2-.4.6-.8.9-1,.4-.2.8-.4,1.3-.4s.9.1,1.2.3c.3.2.5.5.6.9.1.4.1.9,0,1.5v.3h-4c0,.4,0,.8,0,1.1,0,.3.2.6.5.8.2.2.5.3.9.3s.7,0,1-.3.5-.5.6-.8h.6c-.1.4-.3.7-.5.9-.2.2-.5.4-.8.6-.3.1-.6.2-1,.2ZM23.1,67.7h3.3c0-.4,0-.7,0-1,0-.3-.2-.5-.4-.7-.2-.2-.5-.3-.9-.3s-.7,0-1,.3c-.3.2-.5.5-.6.8-.2.3-.3.6-.3.9Z"/>
          <path class="st1" d="M28.1,70.9l.8-5.6h.6v.9c0-.3.2-.5.3-.6.2-.2.4-.3.6-.3s.4-.1.6-.1.2,0,.3,0c0,0,.2,0,.2,0v.7c-.2,0-.2,0-.3,0s-.2,0-.2,0c-.2,0-.4,0-.7,0-.2,0-.4.2-.6.4-.2.2-.3.5-.3.8l-.5,3.7h-.7Z"/>
          <path class="st1" d="M34,71c-.5,0-.9-.1-1.2-.3-.3-.2-.6-.6-.7-1-.1-.4-.2-.9,0-1.6,0-.6.2-1.1.5-1.6.2-.4.6-.8.9-1,.4-.2.8-.4,1.3-.4s.9.1,1.2.3c.3.2.5.5.6.9.1.4.1.9,0,1.5v.3h-4c0,.4,0,.8,0,1.1,0,.3.2.6.5.8.2.2.5.3.9.3s.7,0,1-.3.5-.5.6-.8h.6c-.1.4-.3.7-.5.9-.2.2-.5.4-.8.6-.3.1-.6.2-1,.2ZM32.7,67.7h3.3c0-.4,0-.7,0-1,0-.3-.2-.5-.4-.7-.2-.2-.5-.3-.9-.3s-.7,0-1,.3c-.3.2-.5.5-.6.8-.2.3-.3.6-.3.9Z"/>
          <path class="st1" d="M39.6,71c-.7,0-1.2-.2-1.5-.7-.3-.5-.4-1.2-.3-2.2.1-.9.4-1.6.8-2.1.4-.5,1-.8,1.7-.8s.5,0,.7.1c.2,0,.4.2.5.3.1.1.2.2.3.4,0,.1.1.2.1.3l.5-3.4h.7l-1.1,8.1h-.5v-1.2c0,0,0,.2-.1.3,0,.1-.2.3-.4.4s-.4.3-.6.4c-.2,0-.5.1-.9.1ZM39.8,70.4c.6,0,1.1-.2,1.4-.6.3-.4.5-1,.6-1.9,0-.5,0-.9,0-1.2s-.2-.6-.4-.8c-.2-.2-.5-.3-.9-.3s-.9.2-1.3.6c-.4.4-.6.9-.7,1.7,0,.7,0,1.3.2,1.8.2.4.6.7,1.1.7Z"/>
          <path class="st1" d="M49.1,71c-.3,0-.6,0-.8-.1-.2,0-.4-.2-.5-.4-.1-.1-.2-.3-.3-.4s0-.3-.1-.3l-.2,1.2h-.5l1.1-8.1h.7l-.4,3.4c0,0,.1-.2.2-.3.1-.1.2-.2.4-.4s.4-.2.6-.3c.2,0,.5-.1.8-.1.7,0,1.2.2,1.5.7.3.5.4,1.2.3,2.2-.1.9-.4,1.6-.8,2.1-.4.5-1,.8-1.8.8ZM49.1,70.4c.5,0,.9-.2,1.3-.6.4-.4.6-1,.7-1.9,0-.7,0-1.2-.2-1.7-.2-.4-.6-.6-1.2-.6s-1.1.2-1.4.6c-.3.4-.5,1-.6,1.7-.1.9,0,1.5.1,1.9.2.4.6.6,1.2.6Z"/>
          <path class="st1" d="M52.8,72.7c-.3,0-.5,0-.7-.1v-.5c0,0,.6,0,.6,0,.2,0,.4,0,.6,0s.3-.1.4-.2c0-.1.2-.2.2-.3l.3-.7-1.3-5.6h.7l1,4.7,2.3-4.7h.6l-3.1,6.3c-.2.3-.3.5-.5.7-.2.2-.4.3-.6.4-.2,0-.4.1-.6.1Z"/>
        </g>
      </g>
    </g>
    <g class="st3">
      <g class="st3">
        <g class="st3">
          <path class="st1" d="M62.3,70.9v-7h-2.5v-.9h6v.9h-2.4v7h-1Z"/>
          <path class="st1" d="M66.9,70.9v-8.1h1v3.3c0-.2.2-.3.4-.4.2-.1.4-.2.6-.3.2,0,.5-.1.8-.1s.7,0,1,.2c.3.1.5.3.7.6.2.2.3.5.3.9v4h-1v-3.8c0-.3-.1-.6-.3-.8-.2-.2-.5-.3-.9-.3s-.5,0-.7.1-.4.2-.5.4c-.1.2-.2.4-.2.6v3.8h-1Z"/>
          <path class="st1" d="M75.5,71c-.5,0-1-.1-1.4-.3-.4-.2-.7-.6-.9-1-.2-.4-.3-.9-.3-1.5s.1-1.1.3-1.6c.2-.4.5-.8.9-1,.4-.3.9-.4,1.4-.4s1,.1,1.3.3c.4.2.6.6.8,1,.2.4.3.9.3,1.5v.4h-4c0,.4,0,.7.2,1,.1.3.3.5.5.7s.5.3.9.3.7,0,.9-.3.4-.4.5-.7h.9c0,.4-.2.7-.5,1-.2.3-.5.5-.9.6s-.7.2-1,.2ZM73.9,67.6h3.1c0-.3,0-.6-.2-.9s-.3-.5-.5-.6c-.2-.2-.5-.2-.8-.2s-.6,0-.9.3-.4.4-.5.6c-.1.3-.2.5-.2.8Z"/>
        </g>
      </g>
    </g>
    <g class="st3">
      <g class="st3">
        <g class="st3">
          <path class="st4" d="M82.1,70.9v-7.9h1.6v7.9h-1.6Z"/>
          <path class="st4" d="M88.6,71c-.7,0-1.4-.2-1.9-.5s-.9-.8-1.2-1.4c-.3-.6-.4-1.3-.4-2.2s.1-1.5.4-2.1c.3-.6.7-1.1,1.2-1.4.5-.3,1.2-.5,1.9-.5s1.1.1,1.6.4c.5.2.8.6,1.1,1,.3.4.5.9.5,1.4h-1.7c0-.3-.1-.5-.3-.7-.1-.2-.3-.4-.5-.5-.2-.1-.5-.2-.8-.2s-.7,0-.9.3c-.3.2-.5.5-.6.9-.1.4-.2.9-.2,1.6,0,1,.2,1.7.5,2.1.3.4.7.7,1.3.7s.6,0,.8-.2c.2-.1.4-.3.5-.6.1-.2.2-.5.3-.8h1.7c0,.4-.1.7-.3,1.1s-.3.6-.6.9c-.2.3-.6.5-1,.6s-.9.2-1.4.2Z"/>
          <path class="st4" d="M96.5,71c-.7,0-1.4-.2-1.9-.5-.5-.3-1-.8-1.3-1.4-.3-.6-.4-1.3-.4-2.2s.1-1.6.4-2.2c.3-.6.7-1.1,1.3-1.4.5-.3,1.2-.5,1.9-.5s1.4.2,1.9.5c.5.3,1,.8,1.3,1.4.3.6.4,1.3.4,2.2s-.1,1.5-.4,2.2c-.3.6-.7,1.1-1.3,1.4-.5.3-1.2.5-1.9.5ZM96.5,69.7c.4,0,.7,0,1-.3.3-.2.5-.5.7-.9.2-.4.2-.9.2-1.6s0-1.2-.2-1.6-.4-.7-.7-.9c-.3-.2-.6-.3-1-.3s-.7,0-1,.3c-.3.2-.5.5-.7.9-.2.4-.2.9-.2,1.6s0,1.2.2,1.6c.2.4.4.7.7.9.3.2.6.3,1,.3Z"/>
          <path class="st4" d="M101.5,70.9v-7.9h1.6l3.6,5.2v-5.2h1.6v7.9h-1.4l-3.7-5.4v5.4h-1.6Z"/>
        </g>
      </g>
    </g>
    <g class="st3">
      <g class="st3">
        <g class="st3">
          <path class="st1" d="M113.1,70.9v-7.9h2.3l1.8,5.6,1.8-5.6h2.3v7.9h-1.6v-6l-1.9,6h-1.2l-1.9-6v6h-1.6Z"/>
          <path class="st1" d="M125.4,71c-.6,0-1.1-.1-1.5-.4-.4-.2-.8-.6-1-1s-.4-.9-.4-1.5.1-1.1.3-1.5c.2-.5.5-.8.9-1.1.4-.3.9-.4,1.5-.4s1.1.1,1.4.4.7.6.9,1c.2.4.3.9.3,1.5v.4h-3.8c0,.3,0,.5.1.7,0,.2.2.4.4.5s.4.2.7.2.5,0,.7-.2c.2-.1.3-.3.4-.6h1.4c0,.4-.2.7-.5,1-.3.3-.6.5-.9.6-.4.1-.7.2-1.1.2ZM124.1,67.5h2.3c0-.2,0-.4-.1-.6,0-.2-.2-.3-.4-.4-.2-.1-.4-.2-.6-.2s-.5,0-.6.2c-.2.1-.3.3-.4.5,0,.2-.1.4-.1.6Z"/>
          <path class="st1" d="M131.3,71c-.5,0-.9,0-1.2-.2-.3-.1-.5-.3-.6-.5-.1-.2-.2-.5-.2-.8v-3.1h-.9v-1.1h1l.4-1.7h1.1v1.7h1.3v1.1h-1.3v3c0,.1,0,.2,0,.3,0,0,0,.1.2.1,0,0,.2,0,.3,0h.8v1c0,0-.2,0-.3,0-.2,0-.4,0-.6,0Z"/>
          <path class="st1" d="M133.4,70.9v-8.1h1.6v3.3c0-.1.2-.3.3-.4.1-.1.3-.2.5-.3s.5-.1.8-.1.7,0,1,.2.5.3.7.6c.2.3.3.6.3,1v3.9h-1.6v-3.6c0-.3,0-.4-.3-.6-.2-.1-.4-.2-.7-.2s-.3,0-.5,0-.3.2-.4.3c0,.1-.2.3-.2.5v3.6h-1.6Z"/>
          <path class="st1" d="M142.4,71c-.6,0-1-.1-1.4-.4-.4-.2-.7-.6-.9-1-.2-.4-.3-.9-.3-1.5s.1-1.1.3-1.6c.2-.4.5-.8.9-1,.4-.2.9-.4,1.4-.4s1,.1,1.4.4c.4.2.7.6.9,1s.3,1,.3,1.6-.1,1.1-.3,1.5c-.2.4-.5.8-.9,1s-.9.4-1.5.4ZM142.4,69.8c.3,0,.5,0,.7-.2.2-.2.3-.4.4-.6,0-.3.1-.6.1-.9s0-.6-.1-.8c0-.3-.2-.5-.4-.6-.2-.2-.4-.2-.7-.2s-.5,0-.7.2c-.2.2-.3.4-.4.6,0,.3-.1.6-.1.9s0,.6.1.8c0,.3.2.5.4.7.2.2.4.3.7.3Z"/>
          <path class="st1" d="M148.3,71c-.8,0-1.3-.3-1.8-.8-.4-.5-.6-1.2-.6-2.2s0-1.1.3-1.5.4-.8.8-1c.3-.2.7-.4,1.2-.4s.4,0,.6,0c.2,0,.3.1.5.2.1,0,.3.2.4.3.1.1.2.2.3.3v-3.2h1.6v8.1h-1.2l-.2-1.2c0,.2-.1.3-.2.5,0,.1-.2.3-.3.4-.1.1-.3.2-.5.3s-.4.1-.7.1ZM148.7,69.9c.4,0,.7-.1.9-.4.2-.3.3-.8.3-1.4,0-.4,0-.7-.1-1,0-.3-.2-.4-.4-.6-.2-.1-.4-.2-.7-.2s-.6.1-.9.4c-.2.3-.3.7-.3,1.3s.1,1.1.3,1.4c.2.3.5.4.9.4Z"/>
        </g>
      </g>
    </g>
  </g>
  <g class="st3">
    <g class="st3">
      <g class="st3">
        <g class="st3">
          <path class="st1" d="M154.2,66.7v-3.5h-1.3v-.5h3v.5h-1.2v3.5h-.5Z"/>
          <path class="st1" d="M156.6,66.7v-4h.7l1.2,3.3,1.2-3.3h.7v4h-.5v-3.2l-1.2,3.2h-.5l-1.1-3.2v3.2h-.5Z"/>
        </g>
      </g>
    </g>
  </g>
</svg>