<?xml version="1.0" encoding="UTF-8"?>
<svg id="Layer_1" xmlns="http://www.w3.org/2000/svg" version="1.1" viewBox="0 0 164 55.2">
  <!-- Generator: Adobe Illustrator 29.2.1, SVG Export Plug-In . SVG Version: 2.1.0 Build 116)  -->
  <defs>
    <style>
      .st0 {
        fill: #fff;
      }

      .st0, .st1 {
        fill-rule: evenodd;
      }

      .st1 {
        fill: #ee4137;
      }
    </style>
  </defs>
  <path class="st0" d="M107.6,27.1v-8.7c0-.1,0-.2.2-.2h2.7c0,0,.2,0,.2-.2v-2.9c0,0,0-.2-.2-.2h-2.7c-.1,0-.2,0-.2-.2v-4.3c0,0,0-.2-.2-.2h-2.8c0,0-.2,0-.2.2v17.5c0,1.4,1.1,2.5,2.5,2.5h3.6c0,0,.2,0,.2-.2v-2.8c0,0,0-.2-.2-.2h-2.7c-.1,0-.2,0-.2-.2h0Z"/>
  <path class="st0" d="M157.7,27.2v-8.7c0-.1,0-.2.2-.2h2.7c0,0,.2,0,.2-.2v-2.9c0,0,0-.2-.2-.2h-2.7c-.1,0-.2,0-.2-.2v-4.3c0,0,0-.2-.2-.2h-2.8c0,0-.2,0-.2.2v17.5c0,1.4,1.1,2.5,2.5,2.5h3.6c0,0,.2,0,.2-.2v-2.8c0,0,0-.2-.2-.2h-2.7c-.1,0-.2,0-.2-.2h0Z"/>
  <path class="st0" d="M142.1,23.4c0-.3,0-.5,0-.8s0-.5,0-.8c.4-2.3,2.4-4,4.7-4s2.5.5,3.4,1.4l.4.4c0,0,.2,0,.2,0l2-2c0,0,0-.2,0-.2l-.4-.4c-1.5-1.5-3.5-2.3-5.6-2.3-4,0-7.4,3-7.9,7,0,.3,0,.7,0,1s0,.7,0,1c.5,4,3.9,7,7.9,7s4.1-.8,5.6-2.3l.4-.4c0,0,0-.2,0-.2l-2-2c0,0-.2,0-.2,0l-.4.4c-.9.9-2.1,1.4-3.4,1.4-2.3,0-4.4-1.7-4.7-4h0Z"/>
  <path class="st0" d="M93.9,19.2c0-.1,0-.2,0-.4,0-.4.4-.6.8-.6h8c0,0,.2,0,.2-.2v-2.9c0,0,0-.2-.2-.2h-8c-1.5,0-2.8.9-3.5,2.2-.2.3-.3.6-.4,1,0,.4-.1.8-.1,1.2,0,1,.5,1.7,1.1,2.4.4.4.8.7,1.2.9l6.8,3.1c.2.1.4.3.5.6,0,.1,0,.2,0,.4,0,.4-.4.6-.8.6h-8c0,0-.2,0-.2.2v2.9c0,0,0,.2.2.2h8c1.5,0,2.8-.9,3.5-2.2.2-.3.3-.6.4-1,0-.4.1-.8.1-1.2,0-1-.5-1.7-1.1-2.4-.4-.4-.8-.7-1.2-.9l-6.8-3.1c-.2-.1-.4-.3-.5-.6h0Z"/>
  <path class="st0" d="M112.3,30.4c0,0,0,.2.2.2h2.8c0,0,.2,0,.2-.2v-7.2c0,0,0-.1,0-.2,0-.3,0-.5,0-.8.4-2.3,2.4-4,4.7-4h.5c0,0,.2,0,.2-.2v-2.8c0,0,0-.2-.2-.2h-.5c-4,0-7.4,3-7.9,7,0,.3,0,.7,0,1s0,.1,0,.1v7.2h0Z"/>
  <path class="st0" d="M80.6,14.7c-.7,0-1.4.3-2.1.5,0,0,0,0,0,.1v3.2c0,0,0,.1,0,.1,0,0,.1,0,.2,0,.6-.5,1.3-.8,2.1-.9.3,0,.5,0,.8,0s.5,0,.8,0h0c2.3.4,3.9,2.4,3.9,4.7s-1.7,4.4-4,4.7c-.3,0-.5,0-.8,0s-.5,0-.8,0h0c-2.3-.4-3.9-2.4-3.9-4.7v-12.1c0,0,0-.2-.2-.2h-2.8c0,0-.2,0-.2.2v12.1c0,4,3,7.4,7,7.9.3,0,.7,0,1,0s.7,0,1,0c4-.5,7-3.9,7-7.9s-3-7.4-7-7.9c-.3,0-.7,0-1,0s-.7,0-1,0h0Z"/>
  <path class="st0" d="M63,14.7c-4,.5-7,3.9-7,7.9s3,7.4,7,7.9c.3,0,.7,0,1,0s.7,0,1,0c.7,0,1.4-.3,2.1-.5,0,0,0,0,0-.1v-3.2c0,0,0-.1,0-.1,0,0-.1,0-.2,0-.6.5-1.3.8-2.1.9-.3,0-.5,0-.8,0s-.5,0-.8,0h0c-2.3-.4-3.9-2.4-3.9-4.7s1.7-4.4,4-4.7c.3,0,.5,0,.8,0s.5,0,.8,0h0c2.3.4,3.9,2.4,3.9,4.7v7.6c0,0,0,.2.2.2h2.8c0,0,.2,0,.2-.2v-7.6c0-4-3-7.4-7-7.9-.3,0-.7,0-1,0s-.7,0-1,0h0Z"/>
  <path class="st0" d="M128.3,14.7c-4,.5-7,3.9-7,7.9s3,7.4,7,7.9c.3,0,.7,0,1,0s.7,0,1,0c.7,0,1.4-.3,2.1-.5,0,0,0,0,0-.1v-3.2c0,0,0-.1,0-.1,0,0-.1,0-.2,0-.6.5-1.3.8-2.1.9-.3,0-.5,0-.8,0s-.5,0-.8,0h0c-2.3-.4-3.9-2.4-3.9-4.7s1.7-4.4,4-4.7c.3,0,.5,0,.8,0s.5,0,.8,0h0c2.3.4,3.9,2.4,3.9,4.7v7.6c0,0,0,.2.2.2h2.8c0,0,.2,0,.2-.2v-7.6c0-4-3-7.4-7-7.9-.3,0-.7,0-1,0s-.7,0-1,0h0Z"/>
  <path class="st0" d="M94.4,41.3v-4.9c0,0,0-.1.1-.1h1.5s0,0,0,0v-1.6s0,0,0,0h-1.5c0,0-.1,0-.1-.1v-2.2s0,0,0,0h-1.6s0,0,0,0v9.6c0,.8.6,1.4,1.4,1.4h2s0,0,0,0v-1.6s0,0,0,0h-1.5c0,0-.1,0-.1-.1h0Z"/>
  <path class="st0" d="M58,39.3c0-.1,0-.3,0-.4s0-.3,0-.4c.2-1.3,1.3-2.2,2.6-2.2s1.4.3,1.9.8l.2.2s0,0,.1,0l1.1-1.1s0,0,0-.1l-.2-.2c-.8-.8-2-1.3-3.1-1.3-2.2,0-4.1,1.7-4.4,3.9,0,.2,0,.4,0,.6s0,.4,0,.6c.3,2.2,2.2,3.9,4.4,3.9s2.3-.5,3.1-1.3l.2-.2s0,0,0-.1l-1.1-1.1s0,0-.1,0l-.2.2c-.5.5-1.2.8-1.9.8-1.3,0-2.4-.9-2.6-2.2h0Z"/>
  <path class="st0" d="M105.7,40.5l-2.6-5.9s0,0,0,0h-1.7s0,0,0,0c0,0,0,0,0,0l3.8,8.4s0,0,0,0h1.5s0,0,0,0l3.8-8.4s0,0,0,0c0,0,0,0,0,0h-1.7s0,0,0,0l-2.6,5.9s0,0,0,0c0,0,0,0,0,0h0Z"/>
  <path class="st0" d="M65.6,43.1s0,0,0,0h1.6s0,0,0,0v-4s0,0,0,0c0-.1,0-.3,0-.4.2-1.3,1.3-2.2,2.6-2.2h.3s0,0,0,0v-1.6s0,0,0,0h-.3c-2.2,0-4.1,1.7-4.4,3.9,0,.2,0,.4,0,.6s0,0,0,0v4h0Z"/>
  <path class="st0" d="M97.9,34.6s0,0,0,0v8.4s0,0,0,0h1.6s0,0,0,0v-8.4s0,0,0,0h-1.6ZM98.7,31.6c-.6,0-1.1.5-1.1,1.1s.5,1.1,1.1,1.1,1.1-.5,1.1-1.1-.5-1.1-1.1-1.1h0Z"/>
  <path class="st0" d="M86,34.5c-2.2.3-3.9,2.2-3.9,4.4s1.7,4.1,3.9,4.4c.2,0,.4,0,.6,0s.4,0,.6,0c.4,0,.8-.2,1.2-.3,0,0,0,0,0,0v-1.8s0,0,0,0c0,0,0,0,0,0-.3.3-.7.4-1.2.5-.1,0-.3,0-.4,0s-.3,0-.4,0h0c-1.3-.2-2.2-1.4-2.2-2.6s.9-2.4,2.2-2.6c.1,0,.3,0,.4,0s.3,0,.4,0h0c1.3.2,2.2,1.4,2.2,2.6v4.2s0,0,0,0h1.6s0,0,0,0v-4.2c0-2.2-1.7-4.1-3.9-4.4-.2,0-.4,0-.6,0s-.4,0-.6,0h0Z"/>
  <path class="st0" d="M77.9,40.8c-.3.3-.6.5-1,.6,0,0,0,0,0,0-.3,0-.6.1-.8.1-.6,0-1.2-.2-1.7-.6-.3-.3-.6-.6-.8-1.1,0,0,0,0,0,0-.1-.3-.2-.7-.2-1s0-.7.2-1c0,0,0,0,0,0,.2-.4.5-.8.8-1.1,0,0,0,0,0,0,.5-.4,1-.6,1.7-.6s1.2.2,1.7.6c.3.3.6.6.8,1.1,0,0,0,0,0,0,0,0,0,0,0,.1h-4.3c0,.3-.1.6-.1.9s0,.6.1.9h6.1s0,0,0,0v-.3c0-.2,0-.4,0-.6s0-.4,0-.6c-.3-2.2-2.2-3.9-4.4-3.9s-4.1,1.7-4.4,3.9c0,.2,0,.4,0,.6s0,.4,0,.6c.3,2.2,2.2,3.9,4.4,3.9s2.3-.5,3.1-1.3l.2-.2s0,0,0-.1l-1.1-1.1s0,0-.1,0l-.2.2h0Z"/>
  <path class="st0" d="M117.2,40.8c-.3.3-.6.5-1,.6,0,0,0,0,0,0-.3,0-.6.1-.8.1-.6,0-1.2-.2-1.7-.6-.3-.3-.6-.6-.8-1.1,0,0,0,0,0,0-.1-.3-.2-.7-.2-1s0-.7.2-1c0,0,0,0,0,0,.2-.4.5-.8.8-1.1,0,0,0,0,0,0,.5-.4,1-.6,1.7-.6s1.2.2,1.7.6c.3.3.6.6.8,1.1,0,0,0,0,0,0,0,0,0,0,0,.1h-4.3c0,.3-.1.6-.1.9s0,.6.1.9h6.1s0,0,0,0v-.3c0-.2,0-.4,0-.6s0-.4,0-.6c-.3-2.2-2.2-3.9-4.4-3.9s-4.1,1.7-4.4,3.9c0,.2,0,.4,0,.6s0,.4,0,.6c.3,2.2,2.2,3.9,4.4,3.9s2.3-.5,3.1-1.3l.2-.2s0,0,0-.1l-1.1-1.1s0,0-.1,0l-.2.2h0Z"/>
  <g>
    <path class="st1" d="M41.4,34.8L32,3.7h-15.1L6.4,38.7h11.2l6.9-23,4.9,16.3c4.1.4,8.1,1.4,12,2.8"/>
    <path class="st1" d="M24.5,34.7c8.2,0,16,2.2,22.6,6.1l-5.4,9.4c-5.1-2.9-10.9-4.6-17.2-4.6s-12.2,1.7-17.2,4.6l-5.4-9.4c6.7-3.9,14.4-6.1,22.6-6.1"/>
  </g>
</svg>