<?xml version="1.0" encoding="UTF-8"?><svg id="Layer_1" xmlns="http://www.w3.org/2000/svg" viewBox="0 0 40 50"><defs><style>.cls-1{fill:#ef4237;}</style></defs><path class="cls-1" d="M20.12,45.99c-4.05,0-7.56-.86-10.52-2.58-2.97-1.72-5.26-4.15-6.88-7.27-1.62-3.13-2.43-6.81-2.43-11.04s.82-7.96,2.47-11.12c1.65-3.15,3.96-5.6,6.93-7.34,2.97-1.74,6.45-2.61,10.42-2.61s7.41.87,10.37,2.61,5.25,4.19,6.89,7.34c1.64,3.15,2.46,6.86,2.46,11.12s-.8,7.9-2.42,11.03c-1.61,3.14-3.89,5.56-6.85,7.29-2.96,1.72-6.44,2.58-10.45,2.58ZM20.12,37.17c1.51,0,2.85-.38,4.03-1.14,1.18-.76,2.1-2.01,2.77-3.76.67-1.74,1-4.08,1-7.02s-.33-5.46-1-7.27c-.67-1.82-1.59-3.13-2.77-3.94-1.18-.81-2.52-1.21-4.03-1.21s-2.85.41-4.03,1.21c-1.18.81-2.1,2.12-2.78,3.94-.68,1.82-1.02,4.24-1.02,7.27s.34,5.28,1.02,7.02c.68,1.74,1.61,3,2.78,3.76,1.18.76,2.52,1.14,4.03,1.14Z"/></svg>