<?xml version="1.0" encoding="UTF-8"?><svg id="Layer_1" xmlns="http://www.w3.org/2000/svg" viewBox="0 0 40 50"><defs><style>.cls-1{fill:#ef4237;}</style></defs><path class="cls-1" d="M20.81,45.99c-3.94,0-7.37-.93-10.3-2.8-2.93-1.86-5.2-4.42-6.82-7.66-1.62-3.24-2.43-6.93-2.43-11.07s.8-7.74,2.4-10.8c1.6-3.06,3.87-5.43,6.79-7.12,2.93-1.69,6.38-2.53,10.35-2.53,3.24,0,6.14.64,8.7,1.91,2.56,1.27,4.63,3.03,6.21,5.28,1.58,2.25,2.52,4.84,2.82,7.78h-11.47c-.21-1.26-.59-2.35-1.16-3.28-.56-.92-1.3-1.63-2.22-2.13-.91-.5-2-.75-3.26-.75-1.38,0-2.6.36-3.67,1.07-1.07.72-1.92,1.93-2.53,3.66-.61,1.72-.92,4.08-.92,7.08,0,4.54.67,7.76,2,9.67s3.04,2.87,5.11,2.87c1.26,0,2.35-.32,3.26-.96.91-.64,1.65-1.49,2.22-2.56.57-1.06.95-2.23,1.16-3.49h11.47c-.28,2.11-.76,4.11-1.43,6.02-.67,1.9-1.66,3.59-2.97,5.07-1.31,1.48-3.05,2.64-5.21,3.47-2.17.84-4.88,1.26-8.13,1.26Z"/></svg>